<svg width="104" height="48" viewBox="0 0 104 48" fill="none" xmlns="http://www.w3.org/2000/svg">
<path d="M37.1505 44.0825C36.5452 44.0825 36.0178 44.0138 35.5684 43.8762C35.119 43.7386 34.743 43.491 34.4403 43.1333C34.1377 42.7664 33.913 42.2436 33.7662 41.565C33.6195 40.8771 33.5461 39.9874 33.5461 38.896C33.5461 37.8688 33.6195 37.0205 33.7662 36.3509C33.9221 35.6814 34.1514 35.1586 34.4541 34.7826C34.7659 34.4066 35.1511 34.1452 35.6097 33.9984C36.0683 33.8517 36.6002 33.7783 37.2056 33.7783C37.5449 33.7783 37.8934 33.7967 38.2511 33.8333C38.618 33.87 38.9665 33.9205 39.2967 33.9847C39.636 34.0397 39.9387 34.1039 40.2047 34.1773V35.2228C40.0396 35.1953 39.8149 35.1678 39.5305 35.1403C39.2462 35.1036 38.9252 35.0761 38.5675 35.0577C38.2098 35.0302 37.8384 35.0165 37.4532 35.0165C36.9946 35.0165 36.6048 35.0715 36.2838 35.1816C35.9628 35.2824 35.7014 35.475 35.4997 35.7594C35.2979 36.0345 35.1511 36.4289 35.0594 36.9425C34.9677 37.4469 34.9218 38.1027 34.9218 38.9098C34.9218 39.7261 34.9631 40.3956 35.0457 40.9184C35.1374 41.432 35.2795 41.8309 35.4721 42.1152C35.6647 42.3904 35.9215 42.583 36.2425 42.6931C36.5636 42.7939 36.9625 42.8444 37.4394 42.8444C38.1273 42.8444 38.6914 42.826 39.1316 42.7894C39.5718 42.7527 39.9295 42.716 40.2047 42.6793V43.7386C39.9295 43.8028 39.6268 43.8624 39.2967 43.9175C38.9665 43.9725 38.618 44.0138 38.2511 44.0413C37.8934 44.0688 37.5266 44.0825 37.1505 44.0825ZM42.4475 44V33.5032H43.8233V37.4378C44.1443 37.1993 44.5341 36.9884 44.9926 36.8049C45.4512 36.6123 45.9235 36.516 46.4096 36.516C46.9416 36.516 47.3727 36.6261 47.7028 36.8462C48.0422 37.0663 48.2898 37.369 48.4457 37.7542C48.6016 38.1302 48.6796 38.5567 48.6796 39.0336V44H47.3039V39.1987C47.3039 38.9144 47.2442 38.6667 47.125 38.4558C47.015 38.2357 46.8545 38.066 46.6435 37.9468C46.4417 37.8275 46.1987 37.7679 45.9144 37.7679C45.6392 37.7679 45.3824 37.7954 45.144 37.8505C44.9147 37.9055 44.6946 37.9835 44.4836 38.0844C44.2727 38.1852 44.0525 38.2999 43.8233 38.4283V44H42.4475ZM52.7221 44.0825C52.181 44.0825 51.7316 43.922 51.3739 43.601C51.0254 43.2709 50.8511 42.8169 50.8511 42.2391V41.6613C50.8511 41.0926 51.0437 40.6295 51.4289 40.2718C51.8233 39.9049 52.4149 39.7215 53.2036 39.7215H55.5011V38.9511C55.5011 38.6667 55.4506 38.4283 55.3498 38.2357C55.258 38.0339 55.0838 37.8826 54.827 37.7817C54.5702 37.6808 54.1895 37.6304 53.6851 37.6304H51.4289V36.8187C51.7591 36.7453 52.1443 36.6811 52.5845 36.6261C53.0339 36.571 53.5567 36.5389 54.1529 36.5298C54.7582 36.5298 55.2626 36.6077 55.6662 36.7636C56.0789 36.9104 56.3861 37.158 56.5879 37.5065C56.7897 37.8459 56.8906 38.2999 56.8906 38.8685V44H55.8037L55.5699 43.1883C55.5148 43.225 55.4002 43.2938 55.2259 43.3947C55.0517 43.4864 54.827 43.5873 54.5518 43.6973C54.2859 43.8074 53.9924 43.8991 53.6714 43.9725C53.3595 44.0459 53.0431 44.0825 52.7221 44.0825ZM53.3549 43.0783C53.4925 43.0874 53.653 43.0737 53.8364 43.037C54.029 43.0003 54.2171 42.959 54.4005 42.9132C54.5931 42.8581 54.7674 42.8031 54.9233 42.7481C55.0884 42.6931 55.2213 42.6472 55.3222 42.6105C55.4323 42.5647 55.4919 42.5371 55.5011 42.528V40.4093L53.5751 40.4919C53.0981 40.5194 52.7542 40.6386 52.5433 40.8496C52.3415 41.0605 52.2406 41.3357 52.2406 41.675V42.0052C52.2406 42.2712 52.2956 42.4867 52.4057 42.6518C52.5157 42.8077 52.6533 42.9178 52.8184 42.982C52.9927 43.0462 53.1715 43.0783 53.3549 43.0783ZM61.9931 44C61.4979 44 61.0852 43.922 60.755 43.7661C60.434 43.601 60.1955 43.3396 60.0396 42.982C59.8929 42.6243 59.8241 42.1473 59.8332 41.5512L59.8883 37.7679H58.7189V36.8737L59.9158 36.6398L60.1221 34.5762H61.209V36.6398H63.2038V37.7679H61.209V41.5374C61.209 41.8218 61.2365 42.051 61.2915 42.2253C61.3465 42.3996 61.4245 42.5326 61.5254 42.6243C61.6263 42.716 61.7363 42.7848 61.8556 42.8306C61.9748 42.8673 62.0894 42.8902 62.1995 42.8994L63.1075 42.982V44H61.9931ZM67.8541 44.0825C67.6615 44.0825 67.4322 44.078 67.1662 44.0688C66.9002 44.0596 66.6251 44.0413 66.3408 44.0138C66.0656 43.9954 65.8088 43.9725 65.5704 43.945C65.3411 43.9175 65.1576 43.8854 65.0201 43.8487V43.0232H68.1155C68.3814 43.0232 68.6107 43.0049 68.8033 42.9682C68.9959 42.9223 69.1427 42.8306 69.2436 42.6931C69.3536 42.5555 69.4087 42.3537 69.4087 42.0877V41.7851C69.4087 41.5099 69.3169 41.2944 69.1335 41.1385C68.9501 40.9826 68.6474 40.9046 68.2255 40.9046H67.1525C66.7214 40.9046 66.3362 40.8496 65.9968 40.7395C65.6667 40.6203 65.4053 40.4231 65.2127 40.1479C65.0292 39.8728 64.9375 39.5014 64.9375 39.0336V38.6346C64.9375 38.1669 65.0247 37.7817 65.1989 37.479C65.3824 37.1764 65.6713 36.9517 66.0656 36.8049C66.46 36.649 66.9828 36.571 67.634 36.571C67.9091 36.571 68.2118 36.5848 68.5419 36.6123C68.8813 36.6307 69.2115 36.6582 69.5325 36.6949C69.8535 36.7315 70.1103 36.7728 70.3029 36.8187V37.6441H67.3863C66.9828 37.6441 66.671 37.7129 66.4508 37.8505C66.2399 37.988 66.1344 38.2494 66.1344 38.6346V38.9098C66.1344 39.1483 66.1849 39.3317 66.2857 39.4601C66.3866 39.5885 66.5288 39.671 66.7122 39.7077C66.9048 39.7444 67.1295 39.7627 67.3863 39.7627H68.4869C69.184 39.7627 69.7113 39.9278 70.069 40.258C70.4267 40.579 70.6055 41.033 70.6055 41.62V42.184C70.6055 42.6793 70.4909 43.0645 70.2616 43.3396C70.0323 43.6148 69.7113 43.8074 69.2986 43.9175C68.8951 44.0275 68.4135 44.0825 67.8541 44.0825Z" fill="#364356"/>
<path d="M54.2601 3.6L46.0501 12.29C45.7401 12.62 45.4401 13.27 45.3801 13.72L45.0101 16.96C44.8801 18.13 45.7201 18.93 46.8801 18.73L50.1001 18.18C50.5501 18.1 51.1801 17.77 51.4901 17.43L59.7001 8.74C61.1201 7.24 61.7601 5.53 59.5501 3.44C57.3501 1.37 55.6801 2.1 54.2601 3.6Z" stroke="#292D32" stroke-width="1.5" stroke-miterlimit="10" stroke-linecap="round" stroke-linejoin="round"/>
<path d="M52.8899 5.04999C53.3199 7.80999 55.5599 9.91999 58.3399 10.2" stroke="#292D32" stroke-width="1.5" stroke-miterlimit="10" stroke-linecap="round" stroke-linejoin="round"/>
<path d="M44 22H62" stroke="#292D32" stroke-width="1.5" stroke-miterlimit="10" stroke-linecap="round" stroke-linejoin="round"/>
</svg>
