<svg width="61" height="49" viewBox="0 0 61 49" fill="none" xmlns="http://www.w3.org/2000/svg">
<path d="M23.8637 34.8896H10.3093C9.31086 34.8896 8.35329 34.5765 7.64711 34.0192C6.94094 33.4618 6.54396 32.7058 6.54346 31.9174C6.54346 31.1288 6.94021 30.3724 7.64644 29.8147C8.35268 29.2571 9.31053 28.9438 10.3093 28.9438H23.8618L23.8637 34.8896Z" fill="#FF725E"/>
<path d="M20.113 28.9438H50.3155C50.4626 28.9438 50.6037 28.9899 50.7078 29.0721C50.8118 29.1542 50.8702 29.2656 50.8702 29.3818V29.4865C50.872 29.5449 50.859 29.603 50.8319 29.6573C50.8048 29.7117 50.7642 29.7612 50.7125 29.803C50.6608 29.8448 50.5991 29.878 50.5309 29.9007C50.4627 29.9233 50.3895 29.935 50.3155 29.935H20.113V28.9482V28.9438Z" fill="#FF725E"/>
<path d="M20.113 33.9029H50.3155C50.4626 33.9029 50.6037 33.949 50.7077 34.0312C50.8118 34.1133 50.8702 34.2247 50.8702 34.3409V34.4515C50.8702 34.5677 50.8118 34.6791 50.7077 34.7613C50.6037 34.8435 50.4626 34.8896 50.3155 34.8896H20.113V33.9029Z" fill="#FF725E"/>
<path d="M49.9519 33.9029H23.5456C22.8788 33.9029 22.2392 33.6937 21.7677 33.3213C21.2962 32.949 21.0313 32.444 21.0312 31.9174C21.0323 31.3914 21.2976 30.8871 21.769 30.5154C22.2404 30.1437 22.8794 29.935 23.5456 29.935H49.9519C49.6025 30.56 49.422 31.2357 49.422 31.9189C49.422 32.6021 49.6025 33.2778 49.9519 33.9029Z" fill="#F5F5F5"/>
<g opacity="0.3">
<path opacity="0.3" d="M21.0313 34.8896H10.3226C9.3216 34.8876 8.36231 34.5727 7.65449 34.0138C6.94667 33.4549 6.54791 32.6974 6.54541 31.9069C6.54566 31.5171 6.64327 31.1311 6.83265 30.7711C7.02203 30.4111 7.29947 30.0841 7.64909 29.8089C7.9987 29.5337 8.41363 29.3156 8.87011 29.1671C9.32659 29.0187 9.81567 28.9428 10.3094 28.9437H21.3267C18.5908 30.2474 18.7953 33.3736 21.0313 34.8896Z" fill="black"/>
</g>
<path d="M46.7447 32.1009C46.7447 32.1201 41.3241 32.1363 34.6387 32.1363C27.9533 32.1363 22.5327 32.1201 22.5327 32.1009C22.5327 32.0817 27.9533 32.0654 34.6387 32.0654C41.3241 32.0654 46.7447 32.0817 46.7447 32.1009Z" fill="#263238"/>
<path d="M49.2361 32.983C49.2361 33.0022 43.8155 33.0184 37.1301 33.0184C30.4448 33.0184 25.0242 33.0022 25.0242 32.983C25.0242 32.9638 30.4429 32.9475 37.1301 32.9475C43.8174 32.9475 49.2361 32.9638 49.2361 32.983Z" fill="#263238"/>
<path d="M48.5015 30.848C48.5015 30.8687 43.0809 30.8835 36.3955 30.8835C29.7102 30.8835 24.2896 30.8687 24.2896 30.848C24.2896 30.8274 29.7083 30.8141 36.3955 30.8141C43.0828 30.8141 48.5015 30.8318 48.5015 30.848Z" fill="#263238"/>
<path d="M19.7039 34.472C19.7039 34.4912 17.1669 34.5075 14.0391 34.5075C10.9113 34.5075 8.37231 34.4912 8.37231 34.472C8.37231 34.4528 10.9094 34.4366 14.0391 34.4366C17.1687 34.4366 19.7039 34.4528 19.7039 34.472Z" fill="#263238"/>
<path d="M19.7039 29.4367C19.7039 29.4559 17.1669 29.4721 14.0391 29.4721C10.9113 29.4721 8.37231 29.4559 8.37231 29.4367C8.37231 29.4175 10.9094 29.4012 14.0391 29.4012C17.1687 29.4012 19.7039 29.4175 19.7039 29.4367Z" fill="#263238"/>
<path d="M5.05903 39.0638H22.5137V46.7215H5.05903C3.77304 46.7215 2.53972 46.3181 1.63039 45.6001C0.721061 44.882 0.210205 43.9081 0.210205 42.8927C0.210205 41.8772 0.721061 40.9033 1.63039 40.1853C2.53972 39.4672 3.77304 39.0638 5.05903 39.0638Z" fill="#FF725E"/>
<path d="M17.6934 39.0638H56.7396C56.8867 39.0638 57.0278 39.11 57.1318 39.1921C57.2359 39.2743 57.2943 39.3857 57.2943 39.5019V39.8966C57.2943 40.0127 57.2359 40.1242 57.1318 40.2063C57.0278 40.2885 56.8867 40.3346 56.7396 40.3346H17.6934V39.0638Z" fill="#FF725E"/>
<path d="M17.6934 45.4492H56.7396C56.8867 45.4492 57.0278 45.4954 57.1318 45.5775C57.2359 45.6597 57.2943 45.7711 57.2943 45.8873V46.282C57.2943 46.3981 57.2359 46.5096 57.1318 46.5917C57.0278 46.6739 56.8867 46.72 56.7396 46.72H17.6934V45.4492Z" fill="#FF725E"/>
<path d="M56.1128 45.4492H22.1047C21.2456 45.4492 20.4216 45.1797 19.8141 44.7C19.2065 44.2202 18.8652 43.5696 18.8652 42.8912C18.8657 42.213 19.2073 41.5627 19.8147 41.0833C20.4222 40.6039 21.2459 40.3346 22.1047 40.3346H56.1128C55.6615 41.1401 55.4284 42.0111 55.4284 42.8919C55.4284 43.7727 55.6615 44.6437 56.1128 45.4492Z" fill="#F5F5F5"/>
<g opacity="0.4">
<path opacity="0.4" d="M18.8653 46.72H5.00797C3.73604 46.72 2.51621 46.321 1.61682 45.6108C0.717431 44.9006 0.212159 43.9374 0.212159 42.933C0.21191 42.4249 0.33848 41.9216 0.584637 41.4521C0.830794 40.9826 1.19171 40.556 1.64676 40.1966C2.10182 39.8373 2.64208 39.5523 3.23668 39.3579C3.83128 39.1636 4.46856 39.0636 5.1121 39.0638H19.2345C15.7242 40.7428 15.9893 44.7645 18.8653 46.72Z" fill="black"/>
</g>
<path d="M51.9797 43.1284C51.9797 43.1476 44.999 43.1639 36.3919 43.1639C27.7848 43.1639 20.8003 43.1476 20.8003 43.1284C20.8003 43.1092 27.7791 43.093 36.3919 43.093C45.0047 43.093 51.9797 43.1092 51.9797 43.1284Z" fill="#263238"/>
<path d="M55.1813 44.2662C55.1813 44.2854 48.2006 44.3001 39.5916 44.3001C30.9827 44.3001 24.002 44.2854 24.002 44.2662C24.002 44.247 30.9808 44.2307 39.5916 44.2307C48.2025 44.2307 55.1813 44.2455 55.1813 44.2662Z" fill="#263238"/>
<path d="M54.2346 42.0744C54.2346 42.0936 47.2538 42.1084 38.6468 42.1084C30.0397 42.1084 23.0552 42.0936 23.0552 42.0744C23.0552 42.0552 30.034 42.039 38.6468 42.039C47.2595 42.039 54.2346 42.0537 54.2346 42.0744Z" fill="#263238"/>
<path d="M17.1575 46.1828C17.1575 46.202 13.8915 46.2183 9.86063 46.2183C5.82972 46.2183 2.56372 46.202 2.56372 46.1828C2.56372 46.1636 5.82972 46.1474 9.86063 46.1474C13.8915 46.1474 17.1575 46.1636 17.1575 46.1828Z" fill="#263238"/>
<path d="M17.1575 39.6988C17.1575 39.718 13.8915 39.7327 9.86063 39.7327C5.82972 39.7327 2.56372 39.718 2.56372 39.6988C2.56372 39.6796 5.82972 39.6633 9.86063 39.6633C13.8915 39.6633 17.1575 39.6796 17.1575 39.6988Z" fill="#263238"/>
<path d="M28.3073 39.0907H12.96C12.2238 39.0907 11.5178 38.8598 10.9973 38.4488C10.4768 38.0377 10.1843 37.4803 10.1843 36.899C10.1843 36.3177 10.4768 35.7602 10.9973 35.3492C11.5178 34.9381 12.2238 34.7072 12.96 34.7072H28.3054L28.3073 39.0907Z" fill="#455A64"/>
<path d="M24.3823 34.7072H55.9821C56.0586 34.7072 56.1343 34.7191 56.205 34.7423C56.2756 34.7655 56.3398 34.7994 56.3938 34.8422C56.4478 34.885 56.4905 34.9357 56.5196 34.9916C56.5487 35.0474 56.5636 35.1073 56.5633 35.1677V35.2843C56.5633 35.3446 56.5483 35.4043 56.5191 35.46C56.4899 35.5156 56.4471 35.5662 56.3931 35.6089C56.3391 35.6515 56.275 35.6853 56.2045 35.7084C56.134 35.7314 56.0584 35.7433 55.9821 35.7433H24.3823V34.7102V34.7072Z" fill="#455A64"/>
<path d="M24.3823 38.0576H55.9821C56.1362 38.0576 56.2841 38.106 56.3931 38.1921C56.5021 38.2782 56.5633 38.3949 56.5633 38.5166V38.6332C56.5633 38.755 56.5021 38.8717 56.3931 38.9578C56.2841 39.0439 56.1362 39.0922 55.9821 39.0922H24.3823V38.0591V38.0576Z" fill="#455A64"/>
<path d="M55.6034 38.0576H26.8096C26.4205 38.0576 26.0472 37.9356 25.7721 37.7183C25.4969 37.501 25.3423 37.2063 25.3423 36.899C25.3423 36.5917 25.4969 36.297 25.7721 36.0797C26.0472 35.8624 26.4205 35.7403 26.8096 35.7403H55.6034C54.8638 36.5137 54.8638 37.2862 55.6034 38.0576Z" fill="#F5F5F5"/>
<g opacity="0.3">
<path opacity="0.3" d="M25.3424 39.0907H12.9392C12.2091 39.0907 11.5089 38.8617 10.9926 38.454C10.4763 38.0464 10.1863 37.4934 10.1863 36.9169C10.1863 36.3309 10.4811 35.7688 11.0059 35.3544C11.5307 34.94 12.2425 34.7072 12.9846 34.7072H25.6453C22.7883 35.6685 22.9947 37.9709 25.3424 39.0907Z" fill="black"/>
</g>
<path d="M52.2466 36.7161C52.2466 36.7353 46.5761 36.7516 39.5802 36.7516C32.5843 36.7516 26.9138 36.7353 26.9138 36.7161C26.9138 36.6969 32.5843 36.6807 39.5802 36.6807C46.5761 36.6807 52.2466 36.6969 52.2466 36.7161Z" fill="#263238"/>
<path d="M54.8538 37.3396C54.8538 37.3588 49.1738 37.375 42.1874 37.375C35.201 37.375 29.521 37.3588 29.521 37.3396C29.521 37.3204 35.1915 37.3056 42.1874 37.3056C49.1833 37.3056 54.8538 37.3204 54.8538 37.3396Z" fill="#263238"/>
<path d="M23.9544 38.6552C23.9544 38.6744 21.3037 38.6892 18.0264 38.6892C14.749 38.6892 12.0964 38.6744 12.0964 38.6552C12.0964 38.636 14.7471 38.6198 18.0264 38.6198C21.3056 38.6198 23.9544 38.6345 23.9544 38.6552Z" fill="#263238"/>
<path d="M23.9544 35.2226C23.9544 35.2418 21.3037 35.258 18.0264 35.258C14.749 35.258 12.0964 35.2418 12.0964 35.2226C12.0964 35.2034 14.7471 35.1871 18.0264 35.1871C21.3056 35.1871 23.9544 35.2034 23.9544 35.2226Z" fill="#263238"/>
<path d="M56.1847 34.7068C56.1847 34.726 46.4473 34.7422 34.4379 34.7422C22.4285 34.7422 12.6873 34.726 12.6873 34.7068C12.6873 34.6876 22.4228 34.6713 34.4379 34.6713C46.453 34.6713 56.1847 34.6876 56.1847 34.7068Z" fill="#263238"/>
<path d="M32.2246 30.8754V33.2555L33.2697 32.7263L34.436 33.2555V30.8754H32.2246Z" fill="#FF725E"/>
<path d="M57.2771 17.1448C57.7145 16.9863 58.2086 16.8233 58.2086 16.8233L58.6403 16.6618C58.6431 16.6867 58.6431 16.7117 58.6403 16.7366C58.6311 16.784 58.6376 16.8324 58.6592 16.8771C58.6923 16.9145 58.739 16.9431 58.7931 16.9591C58.8472 16.9751 58.9061 16.9778 58.9622 16.9668C59.0817 16.9522 59.1944 16.9134 59.2893 16.8542C59.3841 16.795 59.458 16.7174 59.5037 16.629C59.544 16.5436 59.5564 16.4516 59.5399 16.3615C59.5233 16.2714 59.4783 16.186 59.409 16.1132C59.4149 16.0627 59.4078 16.0119 59.3882 15.9637C59.2575 15.6243 58.6308 15.4763 58.6308 15.4763L58.7709 15.403C58.7709 15.403 59.284 15.3253 59.8028 15.8754C59.8802 15.9588 59.9932 16.0172 60.1209 16.0399C60.1595 16.048 60.1999 16.0492 60.2391 16.0436C60.2784 16.0379 60.3156 16.0254 60.3481 16.007C60.5147 15.9053 60.4655 15.7857 60.1474 15.4389C59.8293 15.092 59.3749 14.8409 59.0114 14.8409C58.8421 14.8364 58.6725 14.8409 58.504 14.8543C58.504 14.8543 59.7233 14.1322 59.7971 14.0844C60.0149 13.9453 60.1152 13.7525 60.0111 13.6358C59.9448 13.5581 59.7858 13.4983 59.5283 13.6538C59.3049 13.7883 56.7905 14.9425 56.7905 14.9425L55.7151 15.5047L54.9237 16.0818L54.386 16.3299L55.4974 17.7577L56.2547 17.209C56.5943 17.2843 56.9568 17.2616 57.2771 17.1448Z" fill="#FFBF9D"/>
<path d="M55.9575 15.5959C55.999 15.6523 56.0619 15.6971 56.1373 15.7239C56.2126 15.7508 56.2968 15.7582 56.3778 15.7454C56.5445 15.7319 56.6978 15.6751 56.8606 15.6512C57.3491 15.5824 57.8527 15.8231 58.3355 15.7349C58.4037 15.7229 58.4813 15.6915 58.4813 15.6377C58.4813 15.5839 58.4113 15.557 58.3526 15.5361L56.8379 15.0233" fill="#FFBF9D"/>
<path d="M56.8435 15.0247C56.9024 15.0326 56.9597 15.0467 57.0139 15.0666C57.1218 15.098 57.2751 15.1473 57.4645 15.2071L58.129 15.4254L58.3184 15.4882C58.377 15.5121 58.4679 15.5226 58.5077 15.6033C58.5168 15.624 58.5177 15.6464 58.5102 15.6675C58.5028 15.6886 58.4874 15.7074 58.466 15.7214C58.4321 15.7452 58.391 15.7617 58.3467 15.7693C58.2681 15.7849 58.1873 15.7924 58.1063 15.7917C57.8119 15.7721 57.5196 15.7361 57.2316 15.6841C57.1061 15.6693 56.9785 15.6693 56.8529 15.6841C56.7393 15.699 56.6333 15.7289 56.5311 15.7484C56.4512 15.7704 56.3662 15.7785 56.2819 15.7724C56.1976 15.7662 56.116 15.7457 56.0426 15.7125C55.9423 15.6557 55.9347 15.5959 55.9385 15.5974C55.9729 15.6334 56.0152 15.6643 56.0634 15.6886C56.1338 15.7143 56.2101 15.7283 56.2876 15.7298C56.3651 15.7314 56.4421 15.7204 56.514 15.6975C56.6106 15.6766 56.7147 15.6437 56.8397 15.6243C56.9701 15.6077 57.1031 15.6077 57.2335 15.6243C57.5192 15.671 57.8081 15.7044 58.0987 15.7244C58.172 15.7248 58.2451 15.7183 58.3165 15.705C58.3827 15.693 58.4301 15.6601 58.413 15.6347C58.396 15.6093 58.3297 15.5809 58.2653 15.5585L58.076 15.4927L57.419 15.261L56.9798 15.0995C56.9309 15.0788 56.8851 15.0537 56.8435 15.0247Z" fill="#FF9A6C"/>
<path d="M58.6176 15.4628C58.7065 15.4195 58.8069 15.3929 58.911 15.3851C59.0234 15.3816 59.1343 15.4067 59.2272 15.4568C59.341 15.5207 59.4418 15.5978 59.5264 15.6856C59.6127 15.7763 59.7104 15.86 59.8179 15.9352C59.9098 15.9985 60.0217 16.0409 60.1417 16.0578C60.1829 16.0638 60.2252 16.062 60.2653 16.0527C60.3054 16.0433 60.3422 16.0267 60.3727 16.004C60.3955 15.9885 60.4126 15.9683 60.4219 15.9457C60.4219 15.9457 60.3992 15.9636 60.3575 15.9906C60.3276 16.0077 60.2934 16.0197 60.2571 16.0256C60.2209 16.0315 60.1835 16.0313 60.1474 16.0249C60.0383 16.0038 59.9375 15.9616 59.8539 15.9024C59.7515 15.8263 59.6572 15.7438 59.5718 15.6557C59.4845 15.564 59.3783 15.4846 59.2575 15.4209C59.1544 15.3677 59.0319 15.343 58.9091 15.3507C58.8278 15.3568 58.7497 15.3789 58.6819 15.415C58.6346 15.4404 58.6157 15.4598 58.6176 15.4628Z" fill="#FF9A6C"/>
<path d="M59.8863 14.0216C59.7994 14.0628 59.7176 14.1103 59.642 14.1636L59.074 14.5164L58.4928 14.8648C58.4081 14.9087 58.3289 14.9587 58.2561 15.0143C58.3487 14.9819 58.4364 14.9412 58.5174 14.8932C58.6745 14.811 58.8847 14.6929 59.1119 14.5553C59.3391 14.4178 59.5379 14.2877 59.6799 14.1905C59.7561 14.1401 59.8252 14.0835 59.8863 14.0216Z" fill="#FF9A6C"/>
<path d="M58.5552 15.841C58.5803 15.8565 58.6076 15.8695 58.6366 15.8799C58.6733 15.8932 58.7059 15.9126 58.732 15.9369C58.7582 15.9612 58.7773 15.9897 58.788 16.0204C58.7923 16.0407 58.7897 16.0615 58.7804 16.0807C58.7711 16.0999 58.7554 16.1168 58.735 16.1296C58.6851 16.1635 58.6297 16.1922 58.5703 16.2148C58.495 16.2426 58.4355 16.2917 58.4037 16.3523C58.3904 16.3864 58.3876 16.4225 58.3955 16.4576C58.4034 16.4927 58.4218 16.5258 58.4491 16.5542C58.4764 16.582 58.5107 16.6052 58.5498 16.6221C58.5888 16.6391 58.6319 16.6496 58.6763 16.6529C58.758 16.6609 58.8409 16.65 58.9149 16.6215C59.0276 16.5701 59.1303 16.5062 59.2197 16.4316C59.2833 16.383 59.3352 16.3258 59.3731 16.2626C59.3884 16.2402 59.3956 16.2149 59.3939 16.1894C59.3939 16.1894 59.3807 16.2148 59.3523 16.2552C59.3064 16.3103 59.2516 16.3606 59.1894 16.4047C59.0994 16.4733 58.9981 16.5321 58.8884 16.5796C58.8245 16.6054 58.7517 16.6138 58.6812 16.6035C58.6106 16.5932 58.5464 16.5648 58.4984 16.5228C58.4762 16.5005 58.461 16.4744 58.4541 16.4466C58.4472 16.4188 58.4488 16.3901 58.4586 16.3628C58.4871 16.3132 58.5366 16.273 58.5987 16.2492C58.6616 16.2239 58.7196 16.1917 58.771 16.1535C58.7973 16.1353 58.8168 16.1117 58.8271 16.0853C58.8375 16.0589 58.8384 16.0308 58.8297 16.004C58.8156 15.969 58.791 15.9371 58.7581 15.9111C58.7251 15.8851 58.6848 15.8657 58.6404 15.8545C58.5892 15.844 58.5571 15.8381 58.5552 15.841Z" fill="#FF9A6C"/>
<path d="M58.6991 16.6155C58.6991 16.6155 58.6669 16.623 58.6347 16.6618C58.6145 16.6898 58.6025 16.721 58.5999 16.7531C58.5973 16.7853 58.604 16.8175 58.6196 16.8472C58.6457 16.891 58.6858 16.9286 58.7359 16.9564C58.786 16.9842 58.8445 17.0012 58.9055 17.0057C59.053 17.0148 59.1993 16.9789 59.3145 16.9055C59.4305 16.8364 59.5159 16.7401 59.5587 16.6304C59.5888 16.5408 59.5888 16.4465 59.5587 16.3568C59.5402 16.2967 59.5074 16.2399 59.4621 16.1894C59.4299 16.1535 59.4053 16.1386 59.4034 16.1401C59.4535 16.2106 59.4917 16.286 59.517 16.3643C59.5376 16.4485 59.531 16.5353 59.4981 16.617C59.4556 16.7167 59.3766 16.8041 59.2709 16.8682C59.1671 16.9339 59.0365 16.9674 58.9036 16.9623C58.8511 16.9593 58.8004 16.9459 58.7561 16.9235C58.7118 16.901 58.6753 16.8702 58.6499 16.8338C58.6352 16.8082 58.6276 16.7804 58.6276 16.7523C58.6276 16.7242 58.6352 16.6964 58.6499 16.6708C58.6783 16.6289 58.7029 16.6185 58.6991 16.6155Z" fill="#FF9A6C"/>
<path d="M57.2467 16.4495C57.2467 16.4495 57.2278 16.4077 57.1559 16.3598C57.0587 16.2948 56.9367 16.2574 56.8094 16.2537L56.8302 16.2926C56.8797 16.2553 56.9265 16.2159 56.9703 16.1745C57.1314 16.0341 57.2402 15.8613 57.2846 15.6751C57.1857 15.8414 57.0645 15.9988 56.923 16.1446C56.8811 16.185 56.8362 16.2234 56.7885 16.2597L56.7412 16.2985H56.8094C56.9258 16.3003 57.039 16.3289 57.135 16.3808C57.207 16.4211 57.2411 16.4525 57.2467 16.4495Z" fill="#FF9A6C"/>
<path d="M59.3258 15.2266C59.302 15.2549 59.287 15.2873 59.2821 15.3211C59.2771 15.3549 59.2824 15.3891 59.2974 15.421C59.3334 15.5316 59.4319 15.5914 59.4413 15.5809C59.4508 15.5705 59.3864 15.5062 59.3561 15.409C59.3258 15.3118 59.3467 15.2296 59.3258 15.2266Z" fill="#FF9A6C"/>
<path d="M31.4711 28.0751C31.1599 28.3517 30.8969 28.66 30.6892 28.9916C30.5225 29.322 30.5718 29.8572 30.5661 30.1682C30.5604 30.4792 30.7554 30.5509 30.9447 30.5435C31.1341 30.536 31.0678 29.8632 31.0678 29.8632C31.0678 29.8632 31.401 31.7186 31.7986 31.6468C32.1962 31.5751 32.1073 31.6005 32.1073 31.6005C32.1073 31.6005 32.1073 32.04 32.4708 31.9952C32.8343 31.9503 32.7112 31.6468 32.7112 31.6468C32.7563 31.6654 32.8062 31.6758 32.857 31.6771C32.9079 31.6784 32.9585 31.6707 33.0051 31.6545C33.0516 31.6382 33.093 31.6139 33.126 31.5834C33.159 31.5528 33.1829 31.5167 33.1959 31.4779C33.3133 31.1789 33.3076 30.1936 33.3076 30.1936L34.0082 29.7137L34.1369 29.1232C33.9852 28.7887 33.795 28.466 33.5689 28.1588C33.3985 27.9346 34.1691 25.3272 34.1691 25.3272L34.614 23.868L32.0069 23.3148L31.4711 28.0751Z" fill="#FFBF9D"/>
<path d="M50.6125 40.9625C50.5254 41.1031 48.2742 45.0799 48.2742 45.0799L45.9038 44.437L47.3352 40.0909L50.6125 40.9625Z" fill="#FFBF9D"/>
<path d="M46.1425 43.4847C46.1425 43.4847 47.5738 45.0635 48.8935 44.3937L48.9389 44.905L48.6303 48.3735C48.6242 48.4834 48.5672 48.5876 48.4702 48.6664C48.3731 48.7452 48.2428 48.7932 48.104 48.8011C47.9989 48.8051 47.8945 48.7853 47.8033 48.744C47.712 48.7026 47.6377 48.6416 47.589 48.5679C47.0645 47.7695 45.156 44.8303 45.317 44.5387L45.6691 43.7628C45.7046 43.6839 45.7692 43.6153 45.8546 43.5657C45.94 43.5162 46.0423 43.4879 46.1482 43.4847H46.1425Z" fill="#455A64"/>
<g opacity="0.6">
<path opacity="0.6" d="M48.0016 48.7967L45.4286 44.2681L45.3547 44.4371C45.2544 44.615 45.3244 44.7166 45.385 44.8647C45.5592 45.3042 46.1291 46.3373 47.5737 48.5619C47.6145 48.626 47.6751 48.681 47.7499 48.7218C47.8247 48.7625 47.9112 48.7878 48.0016 48.7952V48.7967Z" fill="white"/>
</g>
<g opacity="0.6">
<path opacity="0.6" d="M46.2465 43.9228C46.2935 43.9758 46.314 44.0407 46.3043 44.1049C46.2945 44.1692 46.255 44.2284 46.1935 44.2711C46.128 44.3105 46.0458 44.3284 45.964 44.3212C45.8822 44.3139 45.8071 44.2821 45.7542 44.2322C45.7041 44.1759 45.6823 44.1069 45.6932 44.0386C45.704 43.9703 45.7467 43.9077 45.8129 43.8629C45.8867 43.8278 45.9748 43.8166 46.0588 43.8316C46.1428 43.8467 46.2162 43.8868 46.2635 43.9437" fill="white"/>
</g>
<path d="M47.5946 46.726C47.7708 46.632 47.9681 46.5655 48.1759 46.5301C48.3885 46.5222 48.6012 46.546 48.8026 46.6004C48.8026 46.5914 48.759 46.5421 48.6454 46.4972C48.4942 46.4422 48.3264 46.4219 48.1613 46.4389C47.9961 46.4558 47.8404 46.5092 47.712 46.5929C47.6173 46.6617 47.5833 46.7185 47.5946 46.726Z" fill="#263238"/>
<path d="M47.7252 47.3608C47.8992 47.3356 48.075 47.3187 48.2516 47.3102C48.5412 47.3102 48.7514 47.4159 48.7703 47.3921C48.7893 47.3682 48.581 47.2253 48.2553 47.2164C47.9297 47.2074 47.7044 47.3429 47.7252 47.3608Z" fill="#263238"/>
<path d="M47.2161 45.852C47.2331 45.8773 47.5701 45.7433 48.0226 45.7299C48.4751 45.7165 48.8254 45.8192 48.8386 45.7924C48.5966 45.666 48.3057 45.6106 48.017 45.6361C47.5323 45.6524 47.1972 45.8341 47.2161 45.852Z" fill="#263238"/>
<path d="M47.5493 44.8616C47.5493 44.89 47.873 44.8721 48.2441 44.9603C48.6152 45.0485 48.8765 45.195 48.8973 45.1741C48.9181 45.1532 48.6777 44.9618 48.2782 44.8751C47.8787 44.7884 47.5398 44.8392 47.5493 44.8616Z" fill="#263238"/>
<path d="M48.4562 45.0082C48.4846 44.9585 48.4976 44.9042 48.4941 44.8497C48.5037 44.7019 48.476 44.554 48.4126 44.4146C48.3771 44.3094 48.2985 44.2164 48.1892 44.15C48.151 44.1306 48.106 44.121 48.0606 44.1226C48.0151 44.1242 47.9714 44.1369 47.9355 44.159C47.8685 44.2047 47.8258 44.2688 47.8163 44.3384C47.8009 44.4811 47.8494 44.6235 47.9531 44.7409C48.0569 44.8583 48.2094 44.9434 48.3842 44.9813C48.5577 45.0155 48.7401 45.0086 48.9085 44.9612C49.0769 44.9139 49.2239 44.8283 49.3309 44.7151C49.3571 44.6863 49.3753 44.6534 49.3845 44.6187C49.3936 44.5839 49.3934 44.548 49.3839 44.5133C49.3692 44.479 49.3411 44.4493 49.3037 44.4284C49.2663 44.4074 49.2215 44.3964 49.1756 44.3967C49.04 44.4036 48.9092 44.4393 48.797 44.4999C48.6344 44.5729 48.4906 44.6692 48.3729 44.7839C48.3246 44.8227 48.2872 44.869 48.2631 44.92C48.4289 44.7776 48.6203 44.6552 48.8311 44.5567C48.932 44.5082 49.0464 44.48 49.1643 44.4744C49.1894 44.4733 49.2143 44.4788 49.2349 44.4902C49.2555 44.5016 49.2707 44.5182 49.2779 44.5372C49.2819 44.5602 49.28 44.5836 49.2722 44.606C49.2643 44.6283 49.2508 44.6492 49.2324 44.6673C49.1369 44.7636 49.0081 44.836 48.8617 44.8758C48.7152 44.9156 48.5573 44.9211 48.407 44.8916C48.2597 44.8587 48.1307 44.7875 48.0411 44.6896C47.9514 44.5916 47.9062 44.4726 47.9128 44.3519C47.9193 44.3032 47.9467 44.2579 47.9904 44.2233C48.0098 44.2105 48.0338 44.2029 48.0589 44.2015C48.0841 44.2002 48.1092 44.2052 48.1305 44.2158C48.221 44.2731 48.287 44.3508 48.3199 44.4386C48.4077 44.6206 48.4538 44.8134 48.4562 45.0082Z" fill="#263238"/>
<path d="M48.6681 40.4856C48.7173 40.6351 50.3191 44.8063 50.3191 44.8063L47.9827 45.5539L45.457 41.5307L48.6681 40.4856Z" fill="#FFBF9D"/>
<path d="M47.3844 44.7032C47.3844 44.7032 49.7757 45.1517 50.2244 43.9661L50.6826 44.3294L53.3333 47.1087C53.4206 47.1951 53.4645 47.304 53.4565 47.4143C53.4484 47.5247 53.3891 47.6289 53.2898 47.7068C53.2138 47.7644 53.1184 47.8036 53.0151 47.8198C52.9117 47.836 52.8047 47.8284 52.7066 47.798C51.6482 47.4661 47.765 46.2296 47.6438 45.9321L47.2652 45.1637C47.2268 45.0857 47.219 45.0004 47.2426 44.9189C47.2662 44.8373 47.3202 44.7633 47.3977 44.7062L47.3844 44.7032Z" fill="#455A64"/>
<g opacity="0.6">
<path opacity="0.6" d="M53.1971 47.7546L47.4944 45.6615L47.5796 45.8274C47.6534 46.0158 47.7897 46.0547 47.9583 46.1369C48.4562 46.3776 49.7418 46.8635 52.6783 47.7964C52.7628 47.8231 52.8543 47.833 52.9448 47.8252C53.0353 47.8174 53.1219 47.7921 53.1971 47.7516V47.7546Z" fill="white"/>
</g>
<g opacity="0.6">
<path opacity="0.6" d="M47.8255 44.9798C47.9051 44.9957 47.9744 45.0343 48.0202 45.0881C48.0659 45.1419 48.0849 45.2071 48.0736 45.2713C48.057 45.335 48.01 45.3912 47.9423 45.4283C47.8746 45.4653 47.7914 45.4803 47.7101 45.4701C47.6256 45.4528 47.5523 45.4115 47.5041 45.3541C47.4559 45.2967 47.4362 45.2273 47.4488 45.1592C47.4754 45.0946 47.5326 45.0406 47.6085 45.0085C47.6844 44.9765 47.773 44.9688 47.8558 44.9872" fill="white"/>
</g>
<path d="M51.1693 46.4001C51.2257 46.2378 51.3208 46.0856 51.4495 45.9515C51.6021 45.8348 51.7822 45.7429 51.9797 45.6809C51.9797 45.669 51.9001 45.6585 51.7752 45.6809C51.6146 45.7157 51.4704 45.787 51.3605 45.8858C51.2495 45.9841 51.1766 46.1055 51.1504 46.2356C51.1333 46.3403 51.1561 46.4001 51.1693 46.4001Z" fill="#263238"/>
<path d="M51.796 46.8127C51.83 46.8232 51.9228 46.6438 52.1519 46.5017C52.381 46.3597 52.6177 46.3223 52.612 46.2954C52.6063 46.2685 52.3337 46.264 52.0781 46.4285C51.8225 46.5929 51.7732 46.8112 51.796 46.8127Z" fill="#263238"/>
<path d="M50.1601 45.9321C50.1923 45.9426 50.3362 45.666 50.6657 45.4223C50.9951 45.1786 51.3492 45.0754 51.3359 45.0485C51.3227 45.0216 50.9345 45.0889 50.5786 45.355C50.2226 45.6211 50.1298 45.9321 50.1601 45.9321Z" fill="#263238"/>
<path d="M49.5884 45.0156C49.613 45.0351 49.8421 44.8557 50.1961 44.7301C50.5502 44.6045 50.8683 44.5806 50.8664 44.5537C50.8645 44.5268 50.5237 44.5073 50.1469 44.6449C49.7702 44.7824 49.5638 45.0022 49.5884 45.0156Z" fill="#263238"/>
<path d="M50.3968 44.6568C50.3748 44.6052 50.3394 44.5579 50.2927 44.5178C50.1766 44.4014 50.0324 44.3044 49.8686 44.2322C49.7577 44.1716 49.6246 44.1417 49.4899 44.147C49.4439 44.1516 49.4009 44.1675 49.3669 44.1925C49.3329 44.2174 49.3098 44.2501 49.3006 44.2861C49.2905 44.3552 49.3112 44.425 49.3593 44.4834C49.4673 44.5987 49.6227 44.6806 49.7989 44.7153C49.9751 44.7499 50.1611 44.7351 50.3249 44.6733C50.4851 44.6098 50.6177 44.51 50.7057 44.3867C50.7937 44.2634 50.8332 44.1222 50.8191 43.9811C50.8154 43.9456 50.802 43.9111 50.7797 43.8802C50.7575 43.8492 50.727 43.8224 50.6903 43.8017C50.6508 43.7834 50.605 43.7755 50.5595 43.779C50.5139 43.7825 50.4709 43.7972 50.4366 43.8211C50.341 43.8969 50.2725 43.9913 50.2378 44.0947C50.1764 44.2345 50.1475 44.3819 50.1526 44.5297C50.1478 44.5837 50.1581 44.6378 50.1829 44.6882C50.1906 44.4937 50.2353 44.3012 50.3154 44.1171C50.3528 44.0277 50.4179 43.947 50.5048 43.8824C50.5233 43.8692 50.5466 43.861 50.5714 43.8589C50.5962 43.8567 50.6212 43.8608 50.643 43.8704C50.6657 43.8856 50.6842 43.9043 50.6972 43.9254C50.7102 43.9465 50.7176 43.9696 50.7187 43.993C50.7259 44.1153 50.6885 44.2366 50.611 44.3426C50.5334 44.4486 50.4191 44.5348 50.2814 44.591C50.1431 44.6431 49.9867 44.6566 49.8375 44.6295C49.6883 44.6023 49.5551 44.5361 49.4596 44.4415C49.4237 44.4015 49.4064 44.3529 49.4104 44.304C49.4151 44.2845 49.4272 44.2666 49.4451 44.2527C49.4631 44.2388 49.486 44.2296 49.5108 44.2263C49.6275 44.2217 49.7432 44.2457 49.8421 44.295C50.0518 44.3897 50.2395 44.5121 50.3968 44.6568Z" fill="#263238"/>
<path d="M35.4906 29.5747C35.5853 29.5747 41.1706 33.0761 41.4811 33.4274C41.7916 33.7788 41.9601 36.2307 42.92 38.5211C43.88 40.8115 46.9831 44.1171 46.9831 44.1171L49.8799 43.4339C49.8799 43.4339 47.5246 33.7967 46.9585 32.2299C46.3924 30.6631 44.8134 28.0437 44.8134 28.0437L43.6168 26.6907L43.4426 24.4586L35.5663 24.3405C35.4717 24.3405 34.0687 26.2736 34.366 28.0916C34.5174 29.0125 35.4906 29.5747 35.4906 29.5747Z" fill="#263238"/>
<path d="M53.2008 28.8376C52.5457 27.0705 48.0434 24.6215 48.0434 24.6215L47.286 24.481L42.6682 24.4257C42.6682 24.4257 42.7856 26.1121 42.7837 26.1854C42.7818 26.2586 44.9005 30.2729 44.9005 30.2729L47.7575 31.8427L48.2498 32.2912C48.2498 32.2912 47.5246 34.1331 47.3031 35.5803C47.0816 37.0276 47.1914 41.3737 47.1914 41.3737L50.3495 41.8327C50.3495 41.8327 52.985 35.2544 53.2898 34.166C53.5946 33.0776 53.8559 30.6033 53.2008 28.8376Z" fill="#263238"/>
<path d="M40.9283 25.2719C40.993 25.2728 41.057 25.2824 41.1176 25.3003C41.2858 25.3372 41.4509 25.3827 41.6118 25.4364C41.714 25.4707 41.8257 25.5111 41.9412 25.5575C42.0707 25.6057 42.1932 25.6649 42.3066 25.7339C42.424 25.8041 42.5414 25.8834 42.6701 25.9507C42.7337 25.9854 42.8001 26.0169 42.8689 26.0449C42.9016 26.0569 42.9359 26.066 42.9712 26.0718C43.0009 26.0758 43.0315 26.0704 43.0564 26.0568C43.182 25.9794 43.2969 25.8917 43.3991 25.7952C43.5166 25.7156 43.6392 25.6407 43.7664 25.5709C43.9737 25.4468 44.1949 25.3377 44.4271 25.245C44.5828 25.1819 44.7427 25.1255 44.9061 25.076C44.966 25.0541 45.0299 25.04 45.0955 25.0342C45.0955 25.0461 44.8475 25.1269 44.4669 25.2973C44.2434 25.3961 44.0301 25.5086 43.8288 25.6337C43.7068 25.7021 43.5892 25.7755 43.4767 25.8535C43.3692 25.9563 43.2472 26.0491 43.1132 26.1301C43.067 26.1516 43.0129 26.1601 42.9598 26.154C42.9143 26.1478 42.8703 26.1362 42.8292 26.1196C42.7537 26.09 42.6815 26.0555 42.6133 26.0165C42.4827 25.9432 42.3634 25.8669 42.2498 25.7952C42.1453 25.7275 42.0324 25.6684 41.9128 25.6188C41.7992 25.5709 41.6932 25.5276 41.5928 25.4902C41.1877 25.3437 40.9245 25.2839 40.9283 25.2719Z" fill="#455A64"/>
<path d="M49.8798 43.4339C49.8719 43.4195 49.8662 43.4045 49.8628 43.389C49.8628 43.3531 49.8401 43.3098 49.823 43.253C49.7889 43.1289 49.7397 42.954 49.6791 42.7327C49.5561 42.2737 49.3781 41.6204 49.1622 40.8145C48.723 39.1954 48.1285 36.9573 47.4166 34.4964C47.055 33.266 46.7142 32.0909 46.3184 31.0458C46.1291 30.524 45.7845 30.0725 45.5081 29.639C45.2317 29.2054 44.9401 28.8122 44.694 28.4429L43.4822 26.7326C43.3421 26.5337 43.2323 26.3782 43.1528 26.2676C43.1187 26.2168 43.0903 26.1764 43.0676 26.145C43.057 26.1315 43.0488 26.1169 43.043 26.1017C43.0558 26.1138 43.0672 26.1268 43.077 26.1405L43.1698 26.2586L43.5182 26.7161C43.8154 27.1138 44.2433 27.6924 44.7583 28.4145C45.0158 28.7748 45.296 29.171 45.5857 29.6016C45.7315 29.8154 45.8792 30.0396 46.0269 30.2714C46.1809 30.5112 46.3076 30.7614 46.4055 31.0189C46.8088 32.0654 47.1515 33.2436 47.5131 34.474C48.225 36.9378 48.8101 39.1774 49.2304 40.7996L49.7132 42.7237L49.8382 43.247C49.8495 43.3038 49.8609 43.3487 49.8685 43.3845C49.8751 43.4005 49.879 43.4171 49.8798 43.4339Z" fill="#455A64"/>
<path d="M54.157 16.022L51.3946 17.2808C51.3946 17.2808 50.5029 15.7573 49.6262 13.7644C48.6682 11.5816 47.3542 11.5667 47.3542 11.5667L46.5344 16.3628L47.3826 18.2331C47.3826 18.2331 48.6853 20.2634 49.3725 20.5176C51.7827 21.4146 56.0825 17.9551 56.0825 17.9551L54.157 16.022Z" fill="#FF725E"/>
<path d="M48.8973 16.6529C49.1945 15.4105 49.3308 13.3712 48.5035 12.2529C48.1818 11.9224 47.772 11.6519 47.3031 11.4605C46.4454 11.1944 44.4877 10.7743 44.4101 10.713C44.3325 10.6517 40.9245 10.6353 39.8775 10.6367C39.743 10.6367 39.7885 10.6457 39.7885 10.6457L37.2495 11.3962C37.0494 11.4624 36.8813 11.5772 36.7696 11.724C36.6579 11.8708 36.6085 12.042 36.6285 12.2125L37.1965 17.0042C37.1965 17.0042 37.4086 18.6832 37.4275 19.1122C37.4464 19.5413 37.081 20.1588 37.081 20.1588C36.7894 20.682 36.0018 22.3191 35.4793 23.4135C35.4226 23.5325 35.4025 23.6605 35.4204 23.7868C35.4384 23.9132 35.494 24.0344 35.5826 24.1405C35.6712 24.2467 35.7904 24.3347 35.9304 24.3975C36.0704 24.4604 36.2272 24.4961 36.3881 24.5019L47.6401 24.5842C48.2081 24.6036 48.477 24.5842 48.3652 24.1476C48.1172 23.1653 47.6079 23.0278 47.5435 22.3042C47.4508 21.3787 47.9392 18.6562 47.9676 18.592C47.996 18.5277 48.5129 18.2601 48.8973 16.6529Z" fill="#FF725E"/>
<path d="M37.0525 11.4874C37.0525 11.4874 34.6442 12.1856 34.1273 15.0158C33.6104 17.8459 32.6334 20.0152 32.2245 21.7301C31.9064 23.0682 31.293 27.2932 31.293 27.2932L33.7713 27.6565L36.511 19.8134L37.2248 17.2853L37.7682 15.252L37.0525 11.4874Z" fill="#FF725E"/>
<path d="M47.3333 13.4744C47.404 13.5289 47.4675 13.589 47.5226 13.6538C47.6792 13.8244 47.8209 14.0032 47.9467 14.189C48.3652 14.8055 48.6161 15.4841 48.6832 16.1815C48.7504 16.879 48.6324 17.5798 48.3367 18.2391C48.2489 18.4382 48.1433 18.632 48.0205 18.8192C47.9779 18.8887 47.9279 18.9552 47.871 19.018C47.9004 18.9449 47.9377 18.8738 47.9827 18.8057C48.0903 18.6145 48.1851 18.4188 48.2667 18.2197C48.8167 16.8981 48.6805 15.4583 47.888 14.2159C47.7365 13.9797 47.5964 13.7958 47.4961 13.6717C47.4339 13.6102 47.3793 13.5441 47.3333 13.4744Z" fill="#263238"/>
<path d="M36.4259 14.5359C36.4543 14.5359 36.6891 15.3043 36.9485 16.2641C37.2079 17.224 37.3972 18.0044 37.3688 18.0089C37.3404 18.0134 37.1056 17.2404 36.8462 16.2806C36.5869 15.3208 36.3975 14.5359 36.4259 14.5359Z" fill="#263238"/>
<path d="M46.8354 23.2162C46.724 23.2384 46.6107 23.2544 46.4965 23.264C46.2787 23.2909 45.9607 23.3223 45.5687 23.3552C44.783 23.421 43.6924 23.4793 42.4864 23.4838C41.2803 23.4883 40.1898 23.4329 39.4021 23.3716C39.0102 23.3417 38.6921 23.3118 38.4744 23.2864C38.3599 23.2788 38.2465 23.2633 38.1355 23.2401C38.2501 23.2377 38.3647 23.2427 38.4782 23.255L39.4097 23.3133C40.1955 23.3597 41.2841 23.403 42.4864 23.4001C43.6887 23.3971 44.7754 23.3462 45.5612 23.2954L46.4927 23.2326C46.6061 23.2194 46.7208 23.2139 46.8354 23.2162Z" fill="#263238"/>
<path d="M41.2692 2.55745C40.8242 2.33319 40.7163 1.80992 40.9568 1.44363C41.091 1.26343 41.2759 1.11 41.4972 0.99517C41.7184 0.880337 41.9701 0.807171 42.2329 0.781319C42.612 0.735767 42.9994 0.761736 43.3633 0.857103C43.7273 0.952469 44.0575 1.11452 44.3269 1.33001C44.6147 1.56323 44.8476 1.86972 45.2376 1.97587C45.5803 2.07006 45.9608 1.98484 46.3206 2.02222C46.5596 2.05695 46.7857 2.13353 46.9823 2.24634C47.1788 2.35914 47.3409 2.5053 47.4566 2.67406C47.6875 3.01349 47.8262 3.38726 47.8636 3.77144C47.9167 4.12277 47.9507 4.50701 48.2593 4.76266C48.568 5.01832 49.0337 5.06167 49.4067 5.24257C49.7506 5.41989 49.9927 5.69657 50.0812 6.01324C50.1697 6.32991 50.0975 6.66136 49.88 6.93648C49.7324 7.10691 49.5203 7.2624 49.5014 7.46872C49.4824 7.67503 49.6396 7.82304 49.7115 8.00395C49.749 8.11979 49.7546 8.24062 49.728 8.35833C49.7014 8.47603 49.6432 8.58786 49.5573 8.68631C49.4713 8.78475 49.3597 8.86753 49.2299 8.92905C49.1001 8.99058 48.9551 9.02944 48.8046 9.04301C48.4941 9.05647 48.1628 8.96078 47.8864 9.07142C47.6099 9.18205 47.5077 9.44219 47.3316 9.64104C47.151 9.83423 46.8918 9.97251 46.5974 10.0327C46.303 10.0928 45.9913 10.0712 45.7147 9.97145C45.4875 9.88324 45.2717 9.73672 45.0199 9.75018C44.768 9.76363 44.5673 9.93407 44.3193 9.97294C43.9937 10.0223 43.6851 9.8324 43.4919 9.6201C43.2988 9.40781 43.1625 9.15813 42.9239 8.98321C42.6002 8.75596 42.1439 8.69915 41.733 8.58852C41.2787 8.4649 40.8633 8.26566 40.5149 8.00428C40.1666 7.7429 39.8934 7.42547 39.7139 7.07348C39.5343 6.72149 39.4527 6.34316 39.4744 5.96408C39.4961 5.58501 39.6207 5.21404 39.8397 4.87628" fill="#263238"/>
<path d="M45.9873 7.16074C46.0868 7.07584 46.2109 7.01122 46.3489 6.97236H46.3205L46.3981 6.96189C46.4454 6.95112 46.495 6.94808 46.5438 6.95296C46.5927 6.95785 46.6397 6.97055 46.6821 6.9903C46.8364 7.03564 46.964 7.12462 47.04 7.23997C47.101 7.34373 47.1247 7.45878 47.1083 7.57246C47.092 7.68615 47.0362 7.79407 46.9472 7.88434C46.8747 7.96556 46.7744 8.0288 46.6581 8.06666C46.5417 8.10452 46.4141 8.11544 46.2902 8.09814C46.1797 8.07129 46.0797 8.02237 46.0001 7.95611C45.9205 7.88985 45.8639 7.80848 45.8358 7.71989C45.7999 7.62411 45.795 7.52276 45.8214 7.42509C45.8479 7.32742 45.9049 7.23654 45.9873 7.16074Z" fill="#455A64"/>
<path d="M40.0762 10.4992L39.6293 4.03905C39.6201 3.89309 39.6809 3.74976 39.7995 3.63756C39.918 3.52536 40.0858 3.45253 40.2693 3.43355L44.1563 2.56343C45.4078 2.43037 46.2844 3.6309 46.3999 4.62362C46.5286 5.72547 46.629 7.07551 46.4926 7.90378C46.22 9.56778 44.4933 9.81894 44.4933 9.81894C44.4933 9.81894 44.48 10.2376 44.4933 10.8401L43.7 12.8913L40.0762 10.4992Z" fill="#FFBF9D"/>
<path d="M45.8585 6.1142C45.8611 6.16953 45.8362 6.22347 45.7892 6.26453C45.7421 6.30558 45.6767 6.3305 45.6067 6.33397C45.5725 6.33686 45.538 6.33432 45.5051 6.32651C45.4723 6.31871 45.4417 6.30578 45.4152 6.28851C45.3888 6.27124 45.367 6.24996 45.3511 6.22593C45.3352 6.2019 45.3255 6.1756 45.3227 6.14858C45.3201 6.09326 45.345 6.03932 45.392 5.99826C45.439 5.9572 45.5045 5.93228 45.5745 5.92881C45.6086 5.92593 45.6432 5.92847 45.676 5.93627C45.7089 5.94408 45.7395 5.957 45.7659 5.97427C45.7924 5.99155 45.8142 6.01282 45.8301 6.03685C45.846 6.06088 45.8556 6.08718 45.8585 6.1142Z" fill="#263238"/>
<path d="M46.0554 5.3314C46.0214 5.36118 45.815 5.24653 45.5253 5.25397C45.2356 5.26142 45.0274 5.37904 44.9952 5.35224C44.963 5.32544 45.0103 5.28971 45.1012 5.23462C45.2234 5.16133 45.3717 5.12017 45.5253 5.11699C45.6755 5.11371 45.8231 5.14756 45.9475 5.21377C46.0384 5.26588 46.0706 5.31949 46.0554 5.3314Z" fill="#263238"/>
<path d="M43.2154 6.14709C43.2186 6.20227 43.1941 6.25621 43.1474 6.29731C43.1006 6.33841 43.0353 6.36339 42.9655 6.36686C42.9313 6.36974 42.8967 6.36722 42.8637 6.35943C42.8307 6.35164 42.8 6.33874 42.7734 6.32148C42.7468 6.30423 42.7248 6.28296 42.7087 6.25892C42.6926 6.23488 42.6827 6.20855 42.6796 6.18147C42.677 6.12615 42.7019 6.07221 42.7489 6.03115C42.796 5.99009 42.8615 5.96517 42.9314 5.9617C42.9656 5.95861 43.0002 5.96099 43.0332 5.96872C43.0662 5.97644 43.0969 5.98935 43.1234 6.00666C43.1499 6.02397 43.1718 6.04533 43.1876 6.06946C43.2034 6.09359 43.2129 6.11999 43.2154 6.14709Z" fill="#263238"/>
<path d="M43.2098 5.43906C43.1776 5.46735 42.9693 5.3527 42.6797 5.36014C42.39 5.36759 42.1817 5.48521 42.1495 5.45841C42.1173 5.43161 42.1666 5.39588 42.2574 5.34079C42.3794 5.27014 42.5259 5.23068 42.6773 5.22775C42.8287 5.22482 42.9776 5.25856 43.1038 5.32441C43.1946 5.37652 43.2268 5.42566 43.2098 5.43906Z" fill="#263238"/>
<path d="M44.3211 7.11139C44.4722 7.06984 44.6293 7.04372 44.7888 7.03365C44.8626 7.03365 44.9327 7.01272 44.944 6.97235C44.9482 6.91198 44.929 6.85203 44.8891 6.80042C44.8134 6.66138 44.7358 6.51487 44.6543 6.36088C44.3268 5.73594 44.0863 5.22015 44.1204 5.20968C44.1545 5.19921 44.4442 5.69856 44.7698 6.32499C44.8494 6.4745 44.9232 6.62401 44.9952 6.77351C45.0443 6.84305 45.061 6.92398 45.0425 7.00225C45.0322 7.02306 45.0162 7.04178 44.9955 7.05704C44.9749 7.07231 44.9502 7.08373 44.9232 7.09046C44.8825 7.09961 44.8405 7.10512 44.7982 7.10691C44.6401 7.12429 44.4798 7.12579 44.3211 7.11139Z" fill="#263238"/>
<path d="M44.4934 9.81746C43.5459 9.84411 42.6081 9.65911 41.7878 9.28372C41.7878 9.28372 42.3956 10.5156 44.4896 10.3138L44.4934 9.81746Z" fill="#FF9A6C"/>
<path d="M44.2983 7.65858C44.2303 7.58487 44.1407 7.52527 44.0372 7.48491C43.9336 7.44454 43.8192 7.42462 43.7038 7.42685C43.6277 7.42875 43.5533 7.44543 43.4872 7.47542C43.4212 7.5054 43.3655 7.54777 43.3251 7.59878C43.2852 7.65589 43.2661 7.72058 43.2697 7.78574C43.2734 7.85089 43.2998 7.91399 43.346 7.96806C43.4002 8.02406 43.4746 8.06576 43.5595 8.08765C43.6443 8.10954 43.7356 8.11059 43.8212 8.09066C43.9808 8.04617 44.1244 7.97178 44.2396 7.87387C44.2768 7.84973 44.3071 7.81968 44.3286 7.78567C44.3388 7.76706 44.3428 7.7467 44.3401 7.72654C44.3375 7.70638 44.3283 7.68709 44.3134 7.67055" fill="#FF9A6C"/>
<path d="M43.4747 7.28932C43.522 7.28932 43.5314 7.53451 43.8079 7.70345C44.0843 7.87239 44.4156 7.8395 44.4194 7.87388C44.4232 7.90827 44.3475 7.92322 44.2055 7.93069C44.0213 7.9364 43.8404 7.8909 43.6943 7.80212C43.5539 7.71718 43.4614 7.59207 43.4368 7.45377C43.4216 7.35062 43.4538 7.28782 43.4747 7.28932Z" fill="#263238"/>
<path d="M43.3043 4.49505C43.2777 4.55785 42.9881 4.53542 42.6492 4.57579C42.3102 4.61615 42.0376 4.6939 41.9903 4.64008C41.9694 4.61316 42.0149 4.55336 42.1247 4.49057C42.2686 4.41156 42.434 4.36035 42.6075 4.34106C42.7809 4.32007 42.9582 4.33237 43.1244 4.37694C43.2531 4.4188 43.3156 4.46515 43.3043 4.49505Z" fill="#263238"/>
<path d="M45.9247 4.54888C45.8754 4.6012 45.6729 4.54888 45.4343 4.54888C45.1957 4.54888 44.9913 4.59373 44.9439 4.53991C44.9212 4.51449 44.9439 4.46216 45.0386 4.41133C45.1557 4.34949 45.2934 4.31648 45.4343 4.31648C45.5752 4.31648 45.7129 4.34949 45.83 4.41133C45.9152 4.46964 45.9455 4.51897 45.9247 4.54888Z" fill="#263238"/>
<path d="M47.8142 4.27378C47.7275 4.02065 47.5321 3.7992 47.2613 3.64735C47.1008 3.58205 46.9447 3.51019 46.7937 3.43206C46.4908 3.2392 46.415 2.90281 46.2257 2.63221C46.1027 2.45872 45.9292 2.31087 45.7195 2.20089C45.5097 2.09091 45.2698 2.02198 45.0196 1.9998C44.6031 1.9669 44.1752 2.06558 43.77 1.98485C43.469 1.92504 43.202 1.77105 42.9048 1.7262C42.3141 1.6365 41.7688 1.97139 41.3352 2.30479C41.3352 2.63968 41.6703 2.86245 41.996 3.07773C42.1594 3.18436 42.3502 3.26166 42.5552 3.30425C42.7601 3.34685 42.9744 3.35373 43.1831 3.32442C43.5069 3.27807 43.8609 3.1495 44.1392 3.28555C44.4176 3.4216 44.446 3.77742 44.7072 3.95683C45.0859 4.21249 45.6709 3.97327 46.1443 4.08391C46.5097 4.16913 46.7388 4.44422 46.9811 4.68193C47.2235 4.91965 47.587 5.13045 47.9524 5.04972C47.9452 4.78768 47.8988 4.52723 47.8142 4.27378Z" fill="#263238"/>
<path d="M43.3762 2.86245C43.1112 2.80115 42.5697 2.66659 42.4296 2.4842C42.2867 2.28933 42.0812 2.1277 41.8338 2.01561C41.5865 1.90352 41.3061 1.84495 41.0209 1.8458C40.733 1.86349 40.4601 1.95433 40.2431 2.10471C40.026 2.2551 39.8764 2.45694 39.8168 2.68005C39.4713 2.6899 39.1356 2.77315 38.8451 2.92102C38.5545 3.06889 38.3198 3.27592 38.1658 3.52027C38.1247 3.583 38.0892 3.64795 38.0598 3.71463C37.9553 3.86082 37.8925 4.02327 37.8759 4.1906C37.8592 4.35794 37.889 4.52613 37.9632 4.68343C38.0541 4.8733 38.2112 5.08261 38.0882 5.26052C37.9651 5.43844 37.6451 5.4474 37.399 5.51319C37.1861 5.57677 37.0082 5.69737 36.8965 5.85394C36.7847 6.01051 36.7461 6.19311 36.7874 6.36986C36.8455 6.49049 36.8719 6.61917 36.8651 6.74811C36.8034 6.87291 36.7054 6.98454 36.5792 7.07403C36.4431 7.2019 36.352 7.35573 36.3149 7.52014C36.2778 7.68455 36.296 7.85377 36.3677 8.01088C36.4393 8.16799 36.562 8.30749 36.7234 8.41542C36.8848 8.52335 37.0792 8.59593 37.2873 8.6259C37.4789 8.63277 37.6674 8.66669 37.8439 8.72607C38.0332 8.81727 38.1128 8.99518 38.2434 9.13422C38.3744 9.26637 38.5533 9.36389 38.7562 9.41383C38.9591 9.46376 39.1765 9.46376 39.3794 9.4138C39.4598 9.39129 39.5362 9.36063 39.6066 9.3226C39.683 9.40252 39.784 9.46574 39.8999 9.50629C40.0159 9.54683 40.143 9.56337 40.2693 9.55433L40.1917 6.06188C40.2169 6.10422 40.2544 6.1413 40.3011 6.17012C40.3478 6.19894 40.4024 6.21871 40.4605 6.22783C41.1705 6.35491 41.2746 5.19922 41.1156 4.88227C41.3839 4.71027 41.6232 4.5118 41.8275 4.29172C42.0555 3.94116 42.1682 3.55093 42.155 3.15697C42.4031 3.17342 43.4936 2.88786 43.3762 2.86245Z" fill="#263238"/>
<path d="M40.3791 6.34594C40.3564 5.99011 39.8111 5.91536 39.4172 6.09327C39.2033 6.19045 39.0386 6.39228 39.0594 6.76306C39.1124 7.76923 40.3848 7.51956 40.3848 7.49115C40.3848 7.46274 40.4132 6.76156 40.3791 6.34594Z" fill="#FFBF9D"/>
<path d="M39.9702 7.12335C39.9702 7.12335 39.9493 7.13532 39.9134 7.15027C39.8613 7.16985 39.8017 7.17306 39.7468 7.15924C39.6627 7.12023 39.5932 7.06449 39.545 6.99759C39.4968 6.93068 39.4717 6.85496 39.4722 6.778C39.4654 6.69196 39.4822 6.60577 39.5215 6.52533C39.532 6.4934 39.5521 6.46396 39.5801 6.43949C39.6081 6.41502 39.6432 6.39626 39.6824 6.3848C39.7076 6.379 39.7347 6.38031 39.7588 6.38849C39.783 6.39667 39.8028 6.41121 39.8149 6.42965C39.8339 6.45656 39.8263 6.47749 39.8339 6.47899C39.8414 6.48048 39.8604 6.46105 39.8471 6.41918C39.8384 6.39474 39.8198 6.37321 39.7941 6.35789C39.7574 6.33852 39.7127 6.33103 39.6691 6.33696C39.6175 6.34697 39.5699 6.36717 39.5308 6.39568C39.4917 6.42418 39.4625 6.46004 39.4457 6.49992C39.3968 6.58883 39.376 6.68581 39.3851 6.78248C39.3821 6.87238 39.4133 6.96093 39.4747 7.03664C39.5362 7.11236 39.625 7.17174 39.7297 7.20708C39.7646 7.21363 39.8009 7.21395 39.836 7.208C39.871 7.20205 39.9039 7.18999 39.9323 7.17269C39.9702 7.14728 39.9759 7.12485 39.9702 7.12335Z" fill="#FF9A6C"/>
<path d="M41.6251 2.59034C41.5249 2.6301 41.4375 2.68737 41.3695 2.75778C41.2256 2.97127 41.1924 3.22052 41.2767 3.45299V3.4784H41.2445C41.0614 3.51739 40.8922 3.5892 40.75 3.68826C40.6079 3.78731 40.4965 3.91094 40.4247 4.04951C40.3855 4.12776 40.3631 4.21063 40.3584 4.2947C40.3618 4.38416 40.3751 4.4732 40.3982 4.56082C40.4228 4.65502 40.4392 4.75042 40.4474 4.84638C40.4572 4.95231 40.4211 5.05772 40.3452 5.14539C40.1801 5.31178 39.9627 5.44116 39.7147 5.52065C39.4971 5.59549 39.2973 5.69914 39.124 5.82714C38.835 6.04952 38.6644 6.35055 38.6469 6.66886C38.6383 6.8839 38.6961 7.09735 38.8154 7.2908C38.9006 7.42685 38.9706 7.49263 38.9631 7.49712C38.9555 7.5016 38.9422 7.48366 38.91 7.45227C38.8632 7.40527 38.8214 7.35526 38.7851 7.30276C38.615 7.05969 38.5504 6.77936 38.601 6.50456C38.6516 6.22976 38.8146 5.97557 39.0653 5.78079C39.244 5.64716 39.4501 5.53847 39.6749 5.45935C39.9077 5.38402 40.1123 5.26311 40.2695 5.10802C40.4115 4.95851 40.349 4.75518 40.3111 4.57578C40.2874 4.4837 40.2741 4.39014 40.2713 4.2962C40.2777 4.2043 40.3032 4.11386 40.3471 4.02858C40.4247 3.88137 40.5449 3.75057 40.6982 3.64671C40.8514 3.54285 41.0333 3.46882 41.2294 3.43056L41.2048 3.46196C41.1629 3.34076 41.1527 3.2141 41.1749 3.08969C41.197 2.96529 41.251 2.84575 41.3335 2.73835C41.3852 2.68309 41.4535 2.6389 41.5323 2.60977C41.5929 2.59383 41.6238 2.58735 41.6251 2.59034Z" fill="#455A64"/>
<path d="M39.495 7.49862C39.5947 7.41418 39.7187 7.35006 39.8566 7.31174H39.8301C39.8554 7.30596 39.8815 7.30245 39.9077 7.30127C39.9546 7.29022 40.0038 7.2869 40.0523 7.29153C40.1009 7.29616 40.1477 7.30864 40.1899 7.32818C40.3471 7.373 40.4774 7.46258 40.5553 7.57936C40.6159 7.68345 40.6393 7.79866 40.6229 7.91251C40.6066 8.02635 40.5511 8.1345 40.4625 8.22522C40.3982 8.30748 40.3039 8.37243 40.1919 8.41152C40.08 8.4506 39.9556 8.46199 39.8353 8.44419C39.715 8.42639 39.6043 8.38022 39.5179 8.31178C39.4315 8.24334 39.3733 8.15582 39.3511 8.06077C39.3135 7.96505 39.307 7.86341 39.3321 7.76518C39.3573 7.66696 39.4133 7.5753 39.495 7.49862Z" fill="#455A64"/>
</svg>
