<svg width="75" height="52" viewBox="0 0 75 52" fill="none" xmlns="http://www.w3.org/2000/svg">
<path d="M14.7024 47.0741C14.0971 47.0741 13.5697 47.0053 13.1203 46.8678C12.6709 46.7302 12.2949 46.4826 11.9922 46.1249C11.6896 45.758 11.4649 45.2352 11.3181 44.5565C11.1714 43.8687 11.098 42.979 11.098 41.8876C11.098 40.8604 11.1714 40.012 11.3181 39.3425C11.474 38.673 11.7033 38.1502 12.006 37.7742C12.3178 37.3981 12.703 37.1367 13.1616 36.99C13.6202 36.8433 14.1521 36.7699 14.7574 36.7699C15.0968 36.7699 15.4453 36.7882 15.803 36.8249C16.1699 36.8616 16.5184 36.912 16.8486 36.9762C17.1879 37.0313 17.4906 37.0955 17.7565 37.1688V38.2144C17.5915 38.1869 17.3668 38.1594 17.0824 38.1319C16.7981 38.0952 16.4771 38.0677 16.1194 38.0493C15.7617 38.0218 15.3903 38.008 15.0051 38.008C14.5465 38.008 14.1567 38.0631 13.8357 38.1731C13.5147 38.274 13.2533 38.4666 13.0515 38.7509C12.8498 39.0261 12.703 39.4205 12.6113 39.9341C12.5196 40.4385 12.4737 41.0943 12.4737 41.9014C12.4737 42.7176 12.515 43.3872 12.5975 43.9099C12.6893 44.4235 12.8314 44.8225 13.024 45.1068C13.2166 45.382 13.4734 45.5746 13.7944 45.6846C14.1154 45.7855 14.5144 45.836 14.9913 45.836C15.6792 45.836 16.2432 45.8176 16.6835 45.7809C17.1237 45.7442 17.4814 45.7076 17.7565 45.6709V46.7302C17.4814 46.7944 17.1787 46.854 16.8486 46.909C16.5184 46.9641 16.1699 47.0053 15.803 47.0328C15.4453 47.0604 15.0785 47.0741 14.7024 47.0741ZM22.8642 47.0741C22.3047 47.0741 21.8186 47.0145 21.4059 46.8953C21.0023 46.776 20.6676 46.5789 20.4016 46.3037C20.1356 46.0194 19.9384 45.6342 19.81 45.1481C19.6816 44.662 19.6174 44.0475 19.6174 43.3046C19.6174 42.5342 19.6816 41.906 19.81 41.4199C19.9384 40.9246 20.1356 40.5394 20.4016 40.2642C20.6676 39.9891 21.0069 39.8011 21.4196 39.7002C21.8324 39.5901 22.3139 39.5351 22.8642 39.5351C23.4145 39.5351 23.896 39.5901 24.3087 39.7002C24.7214 39.8103 25.0608 40.0029 25.3267 40.278C25.5927 40.5531 25.7899 40.9384 25.9183 41.4336C26.0467 41.9197 26.1109 42.5434 26.1109 43.3046C26.1109 44.0567 26.0467 44.6803 25.9183 45.1756C25.7899 45.6617 25.5927 46.0423 25.3267 46.3175C25.0699 46.5926 24.7352 46.7898 24.3224 46.909C23.9097 47.0191 23.4236 47.0741 22.8642 47.0741ZM22.8642 45.946C23.1668 45.946 23.4328 45.9185 23.6621 45.8635C23.9006 45.8084 24.0977 45.6938 24.2537 45.5195C24.4096 45.3361 24.5288 45.0656 24.6113 44.7079C24.6939 44.3502 24.7352 43.8778 24.7352 43.2909C24.7352 42.7039 24.6939 42.2361 24.6113 41.8876C24.5288 41.5299 24.4096 41.2639 24.2537 41.0897C24.0977 40.9154 23.9006 40.8008 23.6621 40.7458C23.4328 40.6816 23.1668 40.6495 22.8642 40.6495C22.5523 40.6495 22.2772 40.6816 22.0387 40.7458C21.8094 40.8008 21.6168 40.9154 21.4609 41.0897C21.3142 41.2639 21.1995 41.5299 21.117 41.8876C21.0436 42.2361 21.0069 42.7039 21.0069 43.2909C21.0069 43.8778 21.0436 44.3502 21.117 44.7079C21.1995 45.0656 21.3142 45.3361 21.4609 45.5195C21.6168 45.6938 21.8094 45.8084 22.0387 45.8635C22.2772 45.9185 22.5523 45.946 22.8642 45.946ZM30.6394 47.0741C29.9516 47.0741 29.415 46.8907 29.0298 46.5238C28.6538 46.1478 28.4658 45.5792 28.4658 44.8179V39.6314H29.8415V44.4465C29.8415 44.9968 29.9653 45.3682 30.2129 45.5608C30.4697 45.7534 30.8274 45.8497 31.286 45.8497C31.6529 45.8497 32.0014 45.7947 32.3316 45.6846C32.6709 45.5654 33.0011 45.4049 33.3221 45.2031V39.6314H34.6978V46.9916H33.5972L33.3221 46.2074C32.9644 46.4367 32.5517 46.6385 32.0839 46.8127C31.6254 46.987 31.1439 47.0741 30.6394 47.0741ZM37.2821 46.9916V39.6314H38.3414L38.6578 40.8696C38.9696 40.4935 39.3181 40.1771 39.7033 39.9203C40.0885 39.6635 40.538 39.5351 41.0516 39.5351C41.1708 39.5351 41.2854 39.5443 41.3955 39.5626C41.5056 39.5718 41.611 39.5901 41.7119 39.6177V41.0347C41.5835 41.0163 41.4505 41.0026 41.313 40.9934C41.1754 40.975 41.0332 40.9659 40.8865 40.9659C40.5746 40.9659 40.2949 41.0026 40.0473 41.0759C39.7996 41.1493 39.5612 41.2639 39.3319 41.4199C39.1118 41.5666 38.8871 41.75 38.6578 41.9702V46.9916H37.2821ZM46.2658 47.0741C46.0732 47.0741 45.8439 47.0695 45.5779 47.0604C45.312 47.0512 45.0368 47.0328 44.7525 47.0053C44.4774 46.987 44.2205 46.9641 43.9821 46.9365C43.7528 46.909 43.5694 46.8769 43.4318 46.8402V46.0148H46.5272C46.7932 46.0148 47.0225 45.9965 47.2151 45.9598C47.4077 45.9139 47.5544 45.8222 47.6553 45.6846C47.7654 45.5471 47.8204 45.3453 47.8204 45.0793V44.7766C47.8204 44.5015 47.7287 44.286 47.5452 44.1301C47.3618 43.9741 47.0591 43.8962 46.6373 43.8962H45.5642C45.1331 43.8962 44.7479 43.8412 44.4086 43.7311C44.0784 43.6119 43.817 43.4147 43.6244 43.1395C43.441 42.8644 43.3493 42.4929 43.3493 42.0252V41.6262C43.3493 41.1585 43.4364 40.7733 43.6106 40.4706C43.7941 40.1679 44.083 39.9432 44.4774 39.7965C44.8717 39.6406 45.3945 39.5626 46.0457 39.5626C46.3208 39.5626 46.6235 39.5764 46.9537 39.6039C47.293 39.6222 47.6232 39.6498 47.9442 39.6864C48.2652 39.7231 48.522 39.7644 48.7146 39.8103V40.6357H45.7981C45.3945 40.6357 45.0827 40.7045 44.8626 40.8421C44.6516 40.9796 44.5461 41.241 44.5461 41.6262V41.9014C44.5461 42.1398 44.5966 42.3233 44.6975 42.4517C44.7984 42.5801 44.9405 42.6626 45.1239 42.6993C45.3165 42.736 45.5413 42.7543 45.7981 42.7543H46.8986C47.5957 42.7543 48.123 42.9194 48.4807 43.2496C48.8384 43.5706 49.0173 44.0246 49.0173 44.6116V45.1756C49.0173 45.6709 48.9026 46.0561 48.6733 46.3312C48.444 46.6064 48.123 46.799 47.7103 46.909C47.3068 47.0191 46.8253 47.0741 46.2658 47.0741ZM54.1759 47.0741C53.3964 47.0741 52.7727 46.9595 52.3049 46.7302C51.8464 46.5009 51.5162 46.1157 51.3144 45.5746C51.1218 45.0243 51.0255 44.2676 51.0255 43.3046C51.0255 42.3233 51.1218 41.562 51.3144 41.0209C51.5162 40.4706 51.8464 40.0854 52.3049 39.8653C52.7635 39.6452 53.3826 39.5351 54.1622 39.5351C54.8409 39.5351 55.3866 39.6085 55.7993 39.7552C56.2212 39.8928 56.5284 40.145 56.721 40.5119C56.9228 40.8696 57.0237 41.3694 57.0237 42.0114C57.0237 42.4608 56.932 42.8185 56.7486 43.0845C56.5743 43.3505 56.3221 43.5431 55.9919 43.6623C55.6709 43.7815 55.2857 43.8412 54.8363 43.8412H52.4012C52.4104 44.3731 52.47 44.7996 52.5801 45.1206C52.6993 45.4324 52.9057 45.6617 53.1992 45.8084C53.5018 45.946 53.9421 46.0148 54.5199 46.0148H56.8173V46.8402C56.423 46.8953 56.0194 46.9457 55.6067 46.9916C55.194 47.0466 54.7171 47.0741 54.1759 47.0741ZM52.3875 42.9744H54.7125C55.0793 42.9744 55.3499 42.9057 55.5242 42.7681C55.6984 42.6305 55.7855 42.3783 55.7855 42.0114C55.7855 41.6446 55.7305 41.3557 55.6205 41.1447C55.5196 40.9338 55.3499 40.7824 55.1114 40.6907C54.873 40.599 54.5566 40.5531 54.1622 40.5531C53.7128 40.5531 53.3551 40.6219 53.0891 40.7595C52.8323 40.8971 52.6489 41.1401 52.5388 41.4886C52.4379 41.8372 52.3875 42.3324 52.3875 42.9744ZM61.9631 47.0741C61.7705 47.0741 61.5412 47.0695 61.2753 47.0604C61.0093 47.0512 60.7341 47.0328 60.4498 47.0053C60.1747 46.987 59.9179 46.9641 59.6794 46.9365C59.4501 46.909 59.2667 46.8769 59.1291 46.8402V46.0148H62.2245C62.4905 46.0148 62.7198 45.9965 62.9124 45.9598C63.105 45.9139 63.2517 45.8222 63.3526 45.6846C63.4627 45.5471 63.5177 45.3453 63.5177 45.0793V44.7766C63.5177 44.5015 63.426 44.286 63.2426 44.1301C63.0591 43.9741 62.7565 43.8962 62.3346 43.8962H61.2615C60.8304 43.8962 60.4452 43.8412 60.1059 43.7311C59.7757 43.6119 59.5143 43.4147 59.3217 43.1395C59.1383 42.8644 59.0466 42.4929 59.0466 42.0252V41.6262C59.0466 41.1585 59.1337 40.7733 59.308 40.4706C59.4914 40.1679 59.7803 39.9432 60.1747 39.7965C60.569 39.6406 61.0918 39.5626 61.743 39.5626C62.0182 39.5626 62.3208 39.5764 62.651 39.6039C62.9903 39.6222 63.3205 39.6498 63.6415 39.6864C63.9625 39.7231 64.2193 39.7644 64.4119 39.8103V40.6357H61.4954C61.0918 40.6357 60.78 40.7045 60.5599 40.8421C60.3489 40.9796 60.2435 41.241 60.2435 41.6262V41.9014C60.2435 42.1398 60.2939 42.3233 60.3948 42.4517C60.4957 42.5801 60.6378 42.6626 60.8213 42.6993C61.0139 42.736 61.2386 42.7543 61.4954 42.7543H62.596C63.293 42.7543 63.8204 42.9194 64.1781 43.2496C64.5357 43.5706 64.7146 44.0246 64.7146 44.6116V45.1756C64.7146 45.6709 64.5999 46.0561 64.3707 46.3312C64.1414 46.6064 63.8204 46.799 63.4076 46.909C63.0041 47.0191 62.5226 47.0741 61.9631 47.0741Z" fill="#364356"/>
<g clip-path="url(#clip0_8_2579)">
<path d="M37.1857 4.68788L28.2004 1.05294V17.7982L37.1857 21.7598V4.68788ZM47.8046 0.971252L38.8194 4.68788V21.7598L47.8046 17.7165V0.971252Z" fill="#364356"/>
<path d="M50.2552 2.11475C50.0385 2.11475 49.8308 2.20081 49.6776 2.35399C49.5244 2.50718 49.4383 2.71495 49.4383 2.93159V18.86L38.0026 24.0878L26.5668 18.86V2.93159C26.5668 2.71495 26.4807 2.50718 26.3275 2.35399C26.1744 2.20081 25.9666 2.11475 25.7499 2.11475C25.5333 2.11475 25.3255 2.20081 25.1724 2.35399C25.0192 2.50718 24.9331 2.71495 24.9331 2.93159V19.3909C24.9357 19.5476 24.9833 19.7001 25.0702 19.8305C25.1571 19.9608 25.2796 20.0634 25.4232 20.1261L37.6758 25.6806L38.0026 25.7623L38.3293 25.6806L50.5819 20.1261C50.7255 20.0634 50.848 19.9608 50.9349 19.8305C51.0218 19.7001 51.0694 19.5476 51.072 19.3909V2.93159C51.072 2.71495 50.9859 2.50718 50.8328 2.35399C50.6796 2.20081 50.4718 2.11475 50.2552 2.11475Z" fill="#364356"/>
</g>
<defs>
<clipPath id="clip0_8_2579">
<rect width="26.1389" height="26.1389" fill="white" transform="translate(24.9331 0.318115)"/>
</clipPath>
</defs>
</svg>
