<svg width="55" height="53" viewBox="0 0 55 53" fill="none" xmlns="http://www.w3.org/2000/svg">
<path d="M4.59589 47.327C4.3666 47.327 4.12356 47.3087 3.86675 47.272C3.60995 47.2261 3.36232 47.139 3.12386 47.0106C2.89457 46.873 2.70655 46.6667 2.55981 46.3915C2.41306 46.1164 2.33969 45.7449 2.33969 45.2772V39.2515C2.33969 38.8479 2.39931 38.5086 2.51854 38.2334C2.64694 37.9583 2.81203 37.7428 3.0138 37.5868C3.21557 37.4218 3.44028 37.3071 3.68791 37.2429C3.94471 37.1695 4.19693 37.1329 4.44456 37.1329C5.04071 37.142 5.58642 37.1558 6.08168 37.1741C6.58612 37.1833 7.05387 37.1971 7.48493 37.2154C7.91599 37.2337 8.32871 37.2521 8.72309 37.2704V38.4123H4.81601C4.47666 38.4123 4.21069 38.4994 4.01809 38.6737C3.82548 38.8479 3.72918 39.1231 3.72918 39.4991V41.604L8.10401 41.6865V42.7596L3.72918 42.8559V44.9333C3.72918 45.2451 3.77962 45.479 3.88051 45.6349C3.99057 45.7908 4.12814 45.8963 4.29323 45.9513C4.46749 46.0063 4.65092 46.0338 4.84352 46.0338H8.72309V47.1757C8.3012 47.2032 7.85638 47.2307 7.38863 47.2582C6.92088 47.2766 6.44855 47.2903 5.97163 47.2995C5.50388 47.3179 5.0453 47.327 4.59589 47.327ZM15.6134 47.272L10.3856 39.9118H11.7888L17.0166 47.272H15.6134ZM10.3856 47.272L13.1783 43.1861L13.6873 44.4518L11.7888 47.272H10.3856ZM14.2101 44.0253L13.6185 42.8972L15.6134 39.9256L17.0166 39.9118L14.2101 44.0253ZM18.9093 50.5325V39.9118H20.0374L20.285 40.6547C20.4593 40.5263 20.6657 40.3979 20.9041 40.2695C21.1518 40.1411 21.4177 40.0357 21.702 39.9531C21.9955 39.8614 22.289 39.8155 22.5825 39.8155C23.0503 39.8155 23.4492 39.9118 23.7794 40.1044C24.1188 40.297 24.3939 40.5676 24.6048 40.9161C24.8158 41.2555 24.9671 41.6544 25.0588 42.113C25.1597 42.5716 25.2102 43.0623 25.2102 43.585C25.2102 44.4013 25.1184 45.0938 24.935 45.6624C24.7608 46.2219 24.481 46.6483 24.0958 46.9418C23.7198 47.2261 23.2154 47.3683 22.5825 47.3683C22.1973 47.3683 21.8029 47.3133 21.3994 47.2032C20.9958 47.084 20.6244 46.9281 20.285 46.7355V50.5325H18.9093ZM22.1698 46.2127C22.4816 46.2127 22.7614 46.1347 23.009 45.9788C23.2566 45.8229 23.4538 45.5569 23.6006 45.1809C23.7565 44.7957 23.8344 44.2637 23.8344 43.585C23.8344 42.943 23.7565 42.4294 23.6006 42.0442C23.4446 41.6498 23.2429 41.3701 22.9952 41.205C22.7476 41.0308 22.477 40.9436 22.1836 40.9436C21.7983 40.9436 21.4452 41.0032 21.1242 41.1225C20.8124 41.2417 20.5327 41.3655 20.285 41.4939V45.6899C20.5694 45.8458 20.872 45.9742 21.193 46.0751C21.5232 46.1668 21.8488 46.2127 22.1698 46.2127ZM29.6273 47.2858C29.1779 47.2858 28.7973 47.2078 28.4855 47.0519C28.1828 46.896 27.9535 46.6483 27.7976 46.309C27.6509 45.9605 27.5775 45.4927 27.5775 44.9057V36.7752H28.9532V44.7269C28.9532 45.1121 28.9899 45.4102 29.0633 45.6211C29.1458 45.8229 29.2559 45.9651 29.3935 46.0476C29.5402 46.1301 29.7099 46.1852 29.9025 46.2127L30.5904 46.2952V47.2858H29.6273ZM35.389 47.3545C34.8295 47.3545 34.3434 47.2949 33.9307 47.1757C33.5271 47.0565 33.1924 46.8593 32.9264 46.5841C32.6604 46.2998 32.4632 45.9146 32.3348 45.4285C32.2064 44.9424 32.1422 44.3279 32.1422 43.585C32.1422 42.8146 32.2064 42.1864 32.3348 41.7003C32.4632 41.205 32.6604 40.8198 32.9264 40.5447C33.1924 40.2695 33.5317 40.0815 33.9445 39.9806C34.3572 39.8706 34.8387 39.8155 35.389 39.8155C35.9393 39.8155 36.4208 39.8706 36.8335 39.9806C37.2462 40.0907 37.5856 40.2833 37.8515 40.5584C38.1175 40.8336 38.3147 41.2188 38.4431 41.714C38.5715 42.2001 38.6357 42.8238 38.6357 43.585C38.6357 44.3371 38.5715 44.9608 38.4431 45.456C38.3147 45.9421 38.1175 46.3227 37.8515 46.5979C37.5947 46.873 37.26 47.0702 36.8472 47.1895C36.4345 47.2995 35.9484 47.3545 35.389 47.3545ZM35.389 46.2264C35.6916 46.2264 35.9576 46.1989 36.1869 46.1439C36.4254 46.0889 36.6225 45.9742 36.7785 45.8C36.9344 45.6165 37.0536 45.346 37.1362 44.9883C37.2187 44.6306 37.26 44.1583 37.26 43.5713C37.26 42.9843 37.2187 42.5166 37.1362 42.168C37.0536 41.8103 36.9344 41.5444 36.7785 41.3701C36.6225 41.1959 36.4254 41.0812 36.1869 41.0262C35.9576 40.962 35.6916 40.9299 35.389 40.9299C35.0771 40.9299 34.802 40.962 34.5635 41.0262C34.3342 41.0812 34.1416 41.1959 33.9857 41.3701C33.839 41.5444 33.7243 41.8103 33.6418 42.168C33.5684 42.5166 33.5317 42.9843 33.5317 43.5713C33.5317 44.1583 33.5684 44.6306 33.6418 44.9883C33.7243 45.346 33.839 45.6165 33.9857 45.8C34.1416 45.9742 34.3342 46.0889 34.5635 46.1439C34.802 46.1989 35.0771 46.2264 35.389 46.2264ZM41.0043 47.272V39.9118H42.0636L42.3801 41.15C42.6919 40.774 43.0404 40.4575 43.4256 40.2007C43.8108 39.9439 44.2602 39.8155 44.7738 39.8155C44.8931 39.8155 45.0077 39.8247 45.1178 39.843C45.2278 39.8522 45.3333 39.8706 45.4342 39.8981V41.3151C45.3058 41.2967 45.1728 41.283 45.0352 41.2738C44.8976 41.2555 44.7555 41.2463 44.6087 41.2463C44.2969 41.2463 44.0172 41.283 43.7695 41.3564C43.5219 41.4297 43.2835 41.5444 43.0542 41.7003C42.834 41.847 42.6093 42.0305 42.3801 42.2506V47.272H41.0043ZM50.3182 47.3545C49.5387 47.3545 48.915 47.2399 48.4473 47.0106C47.9887 46.7813 47.6585 46.3961 47.4567 45.855C47.2641 45.3047 47.1678 44.5481 47.1678 43.585C47.1678 42.6037 47.2641 41.8424 47.4567 41.3013C47.6585 40.751 47.9887 40.3658 48.4473 40.1457C48.9058 39.9256 49.5249 39.8155 50.3045 39.8155C50.9832 39.8155 51.5289 39.8889 51.9416 40.0357C52.3635 40.1732 52.6707 40.4254 52.8634 40.7923C53.0651 41.15 53.166 41.6498 53.166 42.2919C53.166 42.7413 53.0743 43.0989 52.8909 43.3649C52.7166 43.6309 52.4644 43.8235 52.1342 43.9427C51.8132 44.062 51.428 44.1216 50.9786 44.1216H48.5436C48.5527 44.6535 48.6123 45.08 48.7224 45.401C48.8416 45.7128 49.048 45.9421 49.3415 46.0889C49.6441 46.2264 50.0844 46.2952 50.6622 46.2952H52.9597V47.1207C52.5653 47.1757 52.1617 47.2261 51.749 47.272C51.3363 47.327 50.8594 47.3545 50.3182 47.3545ZM48.5298 43.2549H50.8548C51.2216 43.2549 51.4922 43.1861 51.6665 43.0485C51.8407 42.9109 51.9279 42.6587 51.9279 42.2919C51.9279 41.925 51.8728 41.6361 51.7628 41.4251C51.6619 41.2142 51.4922 41.0629 51.2537 40.9711C51.0153 40.8794 50.6989 40.8336 50.3045 40.8336C49.8551 40.8336 49.4974 40.9024 49.2314 41.0399C48.9746 41.1775 48.7912 41.4206 48.6811 41.7691C48.5802 42.1176 48.5298 42.6129 48.5298 43.2549Z" fill="#5667FD"/>
<g clip-path="url(#clip0_8_2563)">
<path d="M40.2022 23.3005L37.0798 20.1777C37.7938 19.1719 38.1038 17.9345 37.9483 16.7109C37.7928 15.4873 37.1833 14.3668 36.2405 13.5715C35.2976 12.7762 34.0904 12.3642 32.8581 12.4172C31.6258 12.4702 30.4584 12.9842 29.5873 13.8575C28.7162 14.7307 28.2051 15.8994 28.1552 17.1318C28.1052 18.3643 28.5202 19.5705 29.3178 20.5113C30.1155 21.4521 31.2375 22.0589 32.4615 22.2113C33.6854 22.3638 34.922 22.0508 35.9261 21.3343L39.0476 24.4555C39.2017 24.6043 39.408 24.6866 39.6222 24.6847C39.8364 24.6829 40.0412 24.597 40.1927 24.4455C40.3441 24.2941 40.43 24.0892 40.4319 23.875C40.4338 23.6609 40.3514 23.4545 40.2026 23.3005H40.2022ZM29.8177 17.3481C29.8177 16.7019 30.0094 16.0702 30.3684 15.5329C30.7274 14.9956 31.2377 14.5768 31.8347 14.3295C32.4318 14.0822 33.0887 14.0175 33.7225 14.1436C34.3563 14.2696 34.9385 14.5808 35.3955 15.0378C35.8524 15.4947 36.1636 16.0769 36.2897 16.7107C36.4157 17.3445 36.351 18.0015 36.1037 18.5985C35.8564 19.1955 35.4376 19.7058 34.9003 20.0649C34.363 20.4239 33.7313 20.6155 33.0851 20.6155C32.2188 20.6145 31.3883 20.27 30.7758 19.6574C30.1632 19.0449 29.8187 18.2144 29.8177 17.3481Z" fill="#5667FD"/>
<path d="M26.5505 17.3482C26.5484 16.2 26.8495 15.0716 27.4232 14.077C27.997 13.0824 28.8231 12.2569 29.8182 11.6839C30.8132 11.1108 31.9418 10.8106 33.0901 10.8136C34.2383 10.8165 35.3654 11.1225 36.3575 11.7006V8.35809H15.1196V20.6107H27.4319C26.8549 19.6202 26.5508 18.4945 26.5505 17.3482Z" fill="#5667FD"/>
<path d="M15.1196 2.64044V6.72464H36.3575V2.64044H15.1196ZM17.5702 5.49938C17.4086 5.49938 17.2507 5.45148 17.1163 5.36172C16.982 5.27197 16.8773 5.14439 16.8155 4.99513C16.7537 4.84588 16.7375 4.68164 16.769 4.52319C16.8005 4.36473 16.8783 4.21919 16.9926 4.10495C17.1068 3.99071 17.2523 3.91292 17.4108 3.8814C17.5692 3.84988 17.7335 3.86606 17.8827 3.92788C18.032 3.98971 18.1596 4.0944 18.2493 4.22873C18.3391 4.36306 18.387 4.52099 18.387 4.68254C18.387 4.89918 18.3009 5.10695 18.1477 5.26014C17.9946 5.41332 17.7868 5.49938 17.5702 5.49938ZM20.0207 5.49938C19.8591 5.49938 19.7012 5.45148 19.5669 5.36172C19.4325 5.27197 19.3278 5.14439 19.266 4.99513C19.2042 4.84588 19.188 4.68164 19.2195 4.52319C19.251 4.36473 19.3288 4.21919 19.4431 4.10495C19.5573 3.99071 19.7029 3.91292 19.8613 3.8814C20.0198 3.84988 20.184 3.86606 20.3333 3.92788C20.4825 3.98971 20.6101 4.0944 20.6998 4.22873C20.7896 4.36306 20.8375 4.52099 20.8375 4.68254C20.8375 4.89918 20.7515 5.10695 20.5983 5.26014C20.4451 5.41332 20.2373 5.49938 20.0207 5.49938ZM22.4712 5.49938C22.3096 5.49938 22.1517 5.45148 22.0174 5.36172C21.8831 5.27197 21.7784 5.14439 21.7165 4.99513C21.6547 4.84588 21.6385 4.68164 21.67 4.52319C21.7016 4.36473 21.7794 4.21919 21.8936 4.10495C22.0078 3.99071 22.1534 3.91292 22.3118 3.8814C22.4703 3.84988 22.6345 3.86606 22.7838 3.92788C22.933 3.98971 23.0606 4.0944 23.1504 4.22873C23.2401 4.36306 23.288 4.52099 23.288 4.68254C23.288 4.89918 23.202 5.10695 23.0488 5.26014C22.8956 5.41332 22.6878 5.49938 22.4712 5.49938Z" fill="#5667FD"/>
</g>
<defs>
<clipPath id="clip0_8_2563">
<rect width="26.1389" height="26.1389" fill="white" transform="translate(14.7112 0.598511)"/>
</clipPath>
</defs>
</svg>
