<svg width="104" height="51" viewBox="0 0 104 51" fill="none" xmlns="http://www.w3.org/2000/svg">
<path d="M9.30952 45.6819V35.5428H10.4376L15.404 43.3157V35.5428H16.7797V45.6819H15.6654L10.699 37.909V45.6819H9.30952ZM22.2889 45.7645C21.7294 45.7645 21.2434 45.7048 20.8306 45.5856C20.4271 45.4664 20.0923 45.2692 19.8264 44.994C19.5604 44.7097 19.3632 44.3245 19.2348 43.8384C19.1064 43.3523 19.0422 42.7378 19.0422 41.995C19.0422 41.2245 19.1064 40.5963 19.2348 40.1102C19.3632 39.6149 19.5604 39.2297 19.8264 38.9546C20.0923 38.6794 20.4317 38.4914 20.8444 38.3905C21.2571 38.2805 21.7386 38.2254 22.2889 38.2254C22.8392 38.2254 23.3207 38.2805 23.7334 38.3905C24.1462 38.5006 24.4855 38.6932 24.7515 38.9683C25.0174 39.2435 25.2146 39.6287 25.343 40.124C25.4714 40.61 25.5356 41.2337 25.5356 41.995C25.5356 42.747 25.4714 43.3707 25.343 43.8659C25.2146 44.352 25.0174 44.7327 24.7515 45.0078C24.4947 45.283 24.1599 45.4801 23.7472 45.5994C23.3345 45.7094 22.8484 45.7645 22.2889 45.7645ZM22.2889 44.6364C22.5916 44.6364 22.8575 44.6088 23.0868 44.5538C23.3253 44.4988 23.5225 44.3841 23.6784 44.2099C23.8343 44.0265 23.9535 43.7559 24.0361 43.3982C24.1186 43.0405 24.1599 42.5682 24.1599 41.9812C24.1599 41.3942 24.1186 40.9265 24.0361 40.5779C23.9535 40.2203 23.8343 39.9543 23.6784 39.78C23.5225 39.6058 23.3253 39.4911 23.0868 39.4361C22.8575 39.3719 22.5916 39.3398 22.2889 39.3398C21.9771 39.3398 21.7019 39.3719 21.4635 39.4361C21.2342 39.4911 21.0416 39.6058 20.8857 39.78C20.7389 39.9543 20.6243 40.2203 20.5417 40.5779C20.4684 40.9265 20.4317 41.3942 20.4317 41.9812C20.4317 42.5682 20.4684 43.0405 20.5417 43.3982C20.6243 43.7559 20.7389 44.0265 20.8857 44.2099C21.0416 44.3841 21.2342 44.4988 21.4635 44.5538C21.7019 44.6088 21.9771 44.6364 22.2889 44.6364ZM30.4494 45.6819C29.9541 45.6819 29.5414 45.604 29.2112 45.448C28.8902 45.283 28.6517 45.0216 28.4958 44.6639C28.3491 44.3062 28.2803 43.8293 28.2895 43.2331L28.3445 39.4498H27.1751V38.5556L28.372 38.3217L28.5784 36.2581H29.6652V38.3217H31.66V39.4498H29.6652V43.2194C29.6652 43.5037 29.6927 43.733 29.7477 43.9072C29.8028 44.0815 29.8807 44.2145 29.9816 44.3062C30.0825 44.3979 30.1926 44.4667 30.3118 44.5125C30.431 44.5492 30.5457 44.5722 30.6557 44.5813L31.5637 44.6639V45.6819H30.4494ZM33.9303 37.0836C33.7652 37.0836 33.6827 37.0056 33.6827 36.8497V35.6941C33.6827 35.529 33.7652 35.4465 33.9303 35.4465H34.9483C35.0217 35.4465 35.0767 35.4694 35.1134 35.5153C35.1501 35.5611 35.1685 35.6207 35.1685 35.6941V36.8497C35.1685 37.0056 35.0951 37.0836 34.9483 37.0836H33.9303ZM33.7377 45.6819V38.3217H35.1134V45.6819H33.7377ZM38.102 45.6819V39.4498H37.0014V38.5556L38.102 38.3217V37.4C38.102 36.8681 38.1708 36.4324 38.3083 36.0931C38.4459 35.7537 38.666 35.5061 38.9687 35.3502C39.2805 35.1851 39.6887 35.1025 40.1931 35.1025C40.5508 35.1025 40.8672 35.1255 41.1424 35.1713C41.4175 35.208 41.6514 35.2539 41.844 35.3089V36.3132C41.6697 36.2857 41.4725 36.2673 41.2524 36.2581C41.0415 36.249 40.8351 36.2444 40.6333 36.2444C40.3307 36.2444 40.0968 36.2948 39.9317 36.3957C39.7666 36.4966 39.652 36.6479 39.5878 36.8497C39.5236 37.0423 39.4915 37.2854 39.4915 37.5789V38.3217H43.715V39.4498H39.4915V45.6819H38.102ZM43.0546 45.6819V38.3217H44.4304V45.6819H43.0546ZM43.2472 37.0836C43.0821 37.0836 42.9996 37.0056 42.9996 36.8497V35.6941C42.9996 35.529 43.0821 35.4465 43.2472 35.4465H44.2653C44.3386 35.4465 44.3937 35.4694 44.4304 35.5153C44.467 35.5611 44.4854 35.6207 44.4854 35.6941V36.8497C44.4854 37.0056 44.412 37.0836 44.2653 37.0836H43.2472ZM49.7813 45.7645C49.3502 45.7645 48.9513 45.7094 48.5844 45.5994C48.2267 45.4801 47.9103 45.283 47.6352 45.0078C47.3692 44.7327 47.1628 44.352 47.0161 43.8659C46.8693 43.3799 46.796 42.7654 46.796 42.0225C46.796 41.2612 46.8648 40.6376 47.0023 40.1515C47.1399 39.6562 47.3371 39.271 47.5939 38.9959C47.8599 38.7115 48.1809 38.5143 48.5569 38.4043C48.9329 38.2942 49.3548 38.2392 49.8226 38.2392C50.2078 38.2392 50.6113 38.2575 51.0332 38.2942C51.4643 38.3309 51.8816 38.3905 52.2851 38.4731V39.2848H50.2078C49.7584 39.2848 49.3823 39.3581 49.0797 39.5049C48.777 39.6425 48.5523 39.913 48.4056 40.3166C48.2588 40.7109 48.1855 41.2842 48.1855 42.0362C48.1855 42.7608 48.2634 43.3202 48.4193 43.7146C48.5753 44.0998 48.8 44.3612 49.0934 44.4988C49.3961 44.6364 49.7721 44.7051 50.2215 44.7051H52.3952V45.4893C52.1843 45.5443 51.932 45.5948 51.6385 45.6406C51.3542 45.6773 51.0516 45.7048 50.7306 45.7232C50.4187 45.7507 50.1023 45.7645 49.7813 45.7645ZM55.9478 45.7645C55.4067 45.7645 54.9573 45.604 54.5996 45.283C54.2511 44.9528 54.0768 44.4988 54.0768 43.921V43.3432C54.0768 42.7745 54.2694 42.3114 54.6546 41.9537C55.049 41.5868 55.6406 41.4034 56.4293 41.4034H58.7268V40.633C58.7268 40.3487 58.6763 40.1102 58.5755 39.9176C58.4837 39.7158 58.3095 39.5645 58.0527 39.4636C57.7959 39.3627 57.4153 39.3123 56.9108 39.3123H54.6546V38.5006C54.9848 38.4272 55.37 38.363 55.8102 38.308C56.2596 38.253 56.7824 38.2209 57.3786 38.2117C57.9839 38.2117 58.4883 38.2896 58.8919 38.4456C59.3046 38.5923 59.6118 38.8399 59.8136 39.1885C60.0154 39.5278 60.1163 39.9818 60.1163 40.5504V45.6819H59.0295L58.7956 44.8702C58.7406 44.9069 58.6259 44.9757 58.4516 45.0766C58.2774 45.1683 58.0527 45.2692 57.7775 45.3793C57.5116 45.4893 57.2181 45.581 56.8971 45.6544C56.5852 45.7278 56.2688 45.7645 55.9478 45.7645ZM56.5807 44.7602C56.7182 44.7693 56.8787 44.7556 57.0622 44.7189C57.2548 44.6822 57.4428 44.6409 57.6262 44.5951C57.8188 44.5401 57.9931 44.485 58.149 44.43C58.3141 44.375 58.4471 44.3291 58.5479 44.2924C58.658 44.2466 58.7176 44.2191 58.7268 44.2099V42.0913L56.8008 42.1738C56.3238 42.2013 55.9799 42.3205 55.769 42.5315C55.5672 42.7424 55.4663 43.0176 55.4663 43.3569V43.6871C55.4663 43.9531 55.5213 44.1686 55.6314 44.3337C55.7415 44.4896 55.879 44.5997 56.0441 44.6639C56.2184 44.7281 56.3972 44.7602 56.5807 44.7602ZM65.2189 45.6819C64.7236 45.6819 64.3109 45.604 63.9807 45.448C63.6597 45.283 63.4212 45.0216 63.2653 44.6639C63.1186 44.3062 63.0498 43.8293 63.059 43.2331L63.114 39.4498H61.9446V38.5556L63.1415 38.3217L63.3479 36.2581H64.4347V38.3217H66.4295V39.4498H64.4347V43.2194C64.4347 43.5037 64.4622 43.733 64.5172 43.9072C64.5723 44.0815 64.6502 44.2145 64.7511 44.3062C64.852 44.3979 64.962 44.4667 65.0813 44.5125C65.2005 44.5492 65.3152 44.5722 65.4252 44.5813L66.3332 44.6639V45.6819H65.2189ZM68.6998 37.0836C68.5347 37.0836 68.4521 37.0056 68.4521 36.8497V35.6941C68.4521 35.529 68.5347 35.4465 68.6998 35.4465H69.7178C69.7912 35.4465 69.8462 35.4694 69.8829 35.5153C69.9196 35.5611 69.9379 35.6207 69.9379 35.6941V36.8497C69.9379 37.0056 69.8646 37.0836 69.7178 37.0836H68.6998ZM68.5072 45.6819V38.3217H69.8829V45.6819H68.5072ZM75.4991 45.7645C74.9397 45.7645 74.4536 45.7048 74.0408 45.5856C73.6373 45.4664 73.3025 45.2692 73.0366 44.994C72.7706 44.7097 72.5734 44.3245 72.445 43.8384C72.3166 43.3523 72.2524 42.7378 72.2524 41.995C72.2524 41.2245 72.3166 40.5963 72.445 40.1102C72.5734 39.6149 72.7706 39.2297 73.0366 38.9546C73.3025 38.6794 73.6419 38.4914 74.0546 38.3905C74.4673 38.2805 74.9488 38.2254 75.4991 38.2254C76.0494 38.2254 76.5309 38.2805 76.9436 38.3905C77.3564 38.5006 77.6957 38.6932 77.9617 38.9683C78.2277 39.2435 78.4248 39.6287 78.5532 40.124C78.6816 40.61 78.7458 41.2337 78.7458 41.995C78.7458 42.747 78.6816 43.3707 78.5532 43.8659C78.4248 44.352 78.2277 44.7327 77.9617 45.0078C77.7049 45.283 77.3701 45.4801 76.9574 45.5994C76.5447 45.7094 76.0586 45.7645 75.4991 45.7645ZM75.4991 44.6364C75.8018 44.6364 76.0678 44.6088 76.297 44.5538C76.5355 44.4988 76.7327 44.3841 76.8886 44.2099C77.0445 44.0265 77.1638 43.7559 77.2463 43.3982C77.3288 43.0405 77.3701 42.5682 77.3701 41.9812C77.3701 41.3942 77.3288 40.9265 77.2463 40.5779C77.1638 40.2203 77.0445 39.9543 76.8886 39.78C76.7327 39.6058 76.5355 39.4911 76.297 39.4361C76.0678 39.3719 75.8018 39.3398 75.4991 39.3398C75.1873 39.3398 74.9121 39.3719 74.6737 39.4361C74.4444 39.4911 74.2518 39.6058 74.0959 39.78C73.9491 39.9543 73.8345 40.2203 73.7519 40.5779C73.6786 40.9265 73.6419 41.3942 73.6419 41.9812C73.6419 42.5682 73.6786 43.0405 73.7519 43.3982C73.8345 43.7559 73.9491 44.0265 74.0959 44.2099C74.2518 44.3841 74.4444 44.4988 74.6737 44.5538C74.9121 44.6088 75.1873 44.6364 75.4991 44.6364ZM81.1145 45.6819V38.3217H82.2151L82.4902 39.1197C82.8204 38.8812 83.2102 38.6703 83.6596 38.4868C84.1182 38.2942 84.5905 38.1979 85.0766 38.1979C85.6269 38.1979 86.0671 38.3172 86.3973 38.5556C86.7366 38.7849 86.9797 39.0922 87.1264 39.4774C87.2732 39.8626 87.3465 40.2799 87.3465 40.7293V45.6819H85.9708V40.8944C85.9708 40.6009 85.9112 40.3487 85.792 40.1377C85.6819 39.9176 85.526 39.7479 85.3242 39.6287C85.1224 39.5095 84.8748 39.4498 84.5813 39.4498C84.3062 39.4498 84.0494 39.4774 83.8109 39.5324C83.5816 39.5874 83.3615 39.6654 83.1506 39.7663C82.9396 39.858 82.7195 39.9726 82.4902 40.1102V45.6819H81.1145ZM92.4896 45.7645C92.297 45.7645 92.0677 45.7599 91.8018 45.7507C91.5358 45.7415 91.2606 45.7232 90.9763 45.6957C90.7012 45.6773 90.4444 45.6544 90.2059 45.6269C89.9766 45.5994 89.7932 45.5673 89.6556 45.5306V44.7051H92.751C93.017 44.7051 93.2463 44.6868 93.4389 44.6501C93.6315 44.6043 93.7782 44.5125 93.8791 44.375C93.9892 44.2374 94.0442 44.0356 94.0442 43.7696V43.467C94.0442 43.1918 93.9525 42.9763 93.7691 42.8204C93.5856 42.6645 93.283 42.5865 92.8611 42.5865H91.788C91.3569 42.5865 90.9717 42.5315 90.6324 42.4214C90.3022 42.3022 90.0408 42.105 89.8482 41.8299C89.6648 41.5547 89.5731 41.1833 89.5731 40.7155V40.3166C89.5731 39.8488 89.6602 39.4636 89.8345 39.1609C90.0179 38.8583 90.3068 38.6336 90.7012 38.4868C91.0956 38.3309 91.6183 38.253 92.2695 38.253C92.5447 38.253 92.8473 38.2667 93.1775 38.2942C93.5168 38.3126 93.847 38.3401 94.168 38.3768C94.489 38.4135 94.7458 38.4547 94.9384 38.5006V39.326H92.0219C91.6183 39.326 91.3065 39.3948 91.0864 39.5324C90.8754 39.67 90.77 39.9314 90.77 40.3166V40.5917C90.77 40.8302 90.8204 41.0136 90.9213 41.142C91.0222 41.2704 91.1643 41.3529 91.3478 41.3896C91.5404 41.4263 91.7651 41.4447 92.0219 41.4447H93.1225C93.8195 41.4447 94.3469 41.6097 94.7046 41.9399C95.0622 42.2609 95.2411 42.7149 95.2411 43.3019V43.8659C95.2411 44.3612 95.1264 44.7464 94.8972 45.0216C94.6679 45.2967 94.3469 45.4893 93.9341 45.5994C93.5306 45.7094 93.0491 45.7645 92.4896 45.7645Z" fill="#364356"/>
<path d="M61.1076 15.9278H60.2907V4.49203H39.0529V15.9278H38.236C38.0194 15.9278 37.8116 16.0139 37.6584 16.167C37.5052 16.3202 37.4192 16.528 37.4192 16.7446C37.4192 16.9613 37.5052 17.169 37.6584 17.3222C37.8116 17.4754 38.0194 17.5615 38.236 17.5615H47.8339L42.5244 23.5653C42.3782 23.7277 42.3025 23.9417 42.314 24.1599C42.3255 24.3782 42.4232 24.583 42.5857 24.7293C42.7482 24.8755 42.9621 24.9512 43.1804 24.9397C43.3987 24.9282 43.6035 24.8305 43.7497 24.668L48.855 18.9093V24.913C48.855 25.1297 48.941 25.3375 49.0942 25.4906C49.2474 25.6438 49.4552 25.7299 49.6718 25.7299C49.8884 25.7299 50.0962 25.6438 50.2494 25.4906C50.4026 25.3375 50.4886 25.1297 50.4886 24.913V18.9093L55.5939 24.6272C55.7401 24.7896 55.9449 24.8874 56.1632 24.8989C56.3815 24.9103 56.5954 24.8346 56.7579 24.6884C56.9204 24.5422 57.0181 24.3374 57.0296 24.1191C57.0411 23.9008 56.9654 23.6869 56.8191 23.5244L51.5097 17.5615H61.1076C61.3242 17.5615 61.532 17.4754 61.6852 17.3222C61.8383 17.169 61.9244 16.9613 61.9244 16.7446C61.9244 16.528 61.8383 16.3202 61.6852 16.167C61.532 16.0139 61.3242 15.9278 61.1076 15.9278Z" fill="#364356"/>
<path d="M39.053 0.40802H60.2908V2.85854H39.053V0.40802Z" fill="#364356"/>
</svg>
